%TF.GenerationSoftware,KiCad,Pcbnew,8.0.3*%
%TF.CreationDate,2024-10-24T18:29:52-05:00*%
%TF.ProjectId,EZ-VIK,455a2d56-494b-42e6-9b69-6361645f7063,rev?*%
%TF.SameCoordinates,Original*%
%TF.FileFunction,Legend,Top*%
%TF.FilePolarity,Positive*%
%FSLAX46Y46*%
G04 Gerber Fmt 4.6, Leading zero omitted, Abs format (unit mm)*
G04 Created by KiCad (PCBNEW 8.0.3) date 2024-10-24 18:29:52*
%MOMM*%
%LPD*%
G01*
G04 APERTURE LIST*
%ADD10C,0.100000*%
%ADD11C,0.150000*%
%ADD12C,0.254000*%
%ADD13R,1.680000X1.680000*%
%ADD14R,0.280000X1.250000*%
%ADD15R,1.800000X2.000000*%
G04 APERTURE END LIST*
D10*
X161560219Y-103457333D02*
X162274504Y-103457333D01*
X162274504Y-103457333D02*
X162417361Y-103504952D01*
X162417361Y-103504952D02*
X162512600Y-103600190D01*
X162512600Y-103600190D02*
X162560219Y-103743047D01*
X162560219Y-103743047D02*
X162560219Y-103838285D01*
X161655457Y-103028761D02*
X161607838Y-102981142D01*
X161607838Y-102981142D02*
X161560219Y-102885904D01*
X161560219Y-102885904D02*
X161560219Y-102647809D01*
X161560219Y-102647809D02*
X161607838Y-102552571D01*
X161607838Y-102552571D02*
X161655457Y-102504952D01*
X161655457Y-102504952D02*
X161750695Y-102457333D01*
X161750695Y-102457333D02*
X161845933Y-102457333D01*
X161845933Y-102457333D02*
X161988790Y-102504952D01*
X161988790Y-102504952D02*
X162560219Y-103076380D01*
X162560219Y-103076380D02*
X162560219Y-102457333D01*
D11*
G36*
X154439533Y-99754332D02*
G01*
X154513325Y-99826714D01*
X154554018Y-99984885D01*
X154555321Y-100299639D01*
X154515207Y-100464887D01*
X154444740Y-100536727D01*
X154375294Y-100572489D01*
X154220125Y-100573579D01*
X154151802Y-100540428D01*
X154078010Y-100468047D01*
X154037317Y-100309875D01*
X154036014Y-99995121D01*
X154076128Y-99829873D01*
X154146595Y-99758033D01*
X154216042Y-99722270D01*
X154371209Y-99721180D01*
X154439533Y-99754332D01*
G37*
G36*
X158004999Y-100833491D02*
G01*
X151872903Y-100833491D01*
X151872903Y-100632748D01*
X151984014Y-100632748D01*
X151984014Y-100662012D01*
X151995213Y-100689048D01*
X152015905Y-100709740D01*
X152042941Y-100720939D01*
X152057573Y-100722380D01*
X152643633Y-100720939D01*
X152670669Y-100709740D01*
X152691361Y-100689048D01*
X152702560Y-100662012D01*
X152702560Y-100632748D01*
X152691361Y-100605712D01*
X152670669Y-100585020D01*
X152643633Y-100573821D01*
X152629001Y-100572380D01*
X152418181Y-100572898D01*
X152417137Y-99837857D01*
X152887335Y-99837857D01*
X152888776Y-100662012D01*
X152899975Y-100689048D01*
X152920667Y-100709740D01*
X152947703Y-100720939D01*
X152976967Y-100720939D01*
X153004003Y-100709740D01*
X153024695Y-100689048D01*
X153035894Y-100662012D01*
X153037335Y-100647380D01*
X153035954Y-99857924D01*
X153069387Y-99789022D01*
X153099631Y-99757696D01*
X153168423Y-99722270D01*
X153323590Y-99721180D01*
X153392120Y-99754432D01*
X153423448Y-99784677D01*
X153458790Y-99853308D01*
X153460204Y-100662012D01*
X153471403Y-100689048D01*
X153492095Y-100709740D01*
X153519131Y-100720939D01*
X153548395Y-100720939D01*
X153575431Y-100709740D01*
X153596123Y-100689048D01*
X153607322Y-100662012D01*
X153608763Y-100647380D01*
X153607597Y-99980714D01*
X153887335Y-99980714D01*
X153888695Y-100309150D01*
X153887424Y-100317693D01*
X153888768Y-100326785D01*
X153888776Y-100328679D01*
X153889198Y-100329700D01*
X153889574Y-100332237D01*
X153936395Y-100514228D01*
X153936395Y-100519154D01*
X153939739Y-100527228D01*
X153942140Y-100536559D01*
X153945460Y-100541040D01*
X153947594Y-100546191D01*
X153956921Y-100557556D01*
X154052688Y-100651493D01*
X154059208Y-100659011D01*
X154062401Y-100661021D01*
X154063524Y-100662122D01*
X154065356Y-100662880D01*
X154071651Y-100666843D01*
X154157540Y-100708518D01*
X154158762Y-100709740D01*
X154167621Y-100713409D01*
X154180620Y-100719717D01*
X154183309Y-100719908D01*
X154185798Y-100720939D01*
X154200430Y-100722380D01*
X154379517Y-100721121D01*
X154381525Y-100721791D01*
X154392197Y-100721032D01*
X154405538Y-100720939D01*
X154408027Y-100719907D01*
X154410715Y-100719717D01*
X154424447Y-100714462D01*
X154519003Y-100665769D01*
X154527812Y-100662121D01*
X154530714Y-100659738D01*
X154532128Y-100659011D01*
X154533427Y-100657512D01*
X154539177Y-100652794D01*
X154627774Y-100562470D01*
X154631774Y-100560071D01*
X154636857Y-100553210D01*
X154643743Y-100546191D01*
X154645877Y-100541037D01*
X154649196Y-100536559D01*
X154654143Y-100522713D01*
X154699383Y-100336347D01*
X154702560Y-100328679D01*
X154703457Y-100319564D01*
X154703912Y-100317693D01*
X154703749Y-100316600D01*
X154704001Y-100314047D01*
X154702640Y-99985610D01*
X154703912Y-99977068D01*
X154702567Y-99967975D01*
X154702560Y-99966082D01*
X154702137Y-99965060D01*
X154701762Y-99962524D01*
X154654941Y-99780532D01*
X154654941Y-99775607D01*
X154651595Y-99767530D01*
X154649196Y-99758202D01*
X154645877Y-99753723D01*
X154643743Y-99748570D01*
X154634415Y-99737205D01*
X154547001Y-99651462D01*
X155696970Y-99651462D01*
X155704233Y-99679810D01*
X155711859Y-99692380D01*
X156102601Y-100211230D01*
X155709499Y-100605712D01*
X155698300Y-100632749D01*
X155698300Y-100662011D01*
X155709499Y-100689048D01*
X155730191Y-100709740D01*
X155757228Y-100720939D01*
X155786490Y-100720939D01*
X155813527Y-100709740D01*
X155824892Y-100700413D01*
X156250918Y-100272891D01*
X156256271Y-100268877D01*
X156258250Y-100265533D01*
X156269149Y-100254596D01*
X156269728Y-100662012D01*
X156280927Y-100689048D01*
X156301619Y-100709740D01*
X156328655Y-100720939D01*
X156357919Y-100720939D01*
X156384955Y-100709740D01*
X156405647Y-100689048D01*
X156416846Y-100662012D01*
X156418287Y-100647380D01*
X156416867Y-99647380D01*
X156744477Y-99647380D01*
X156745918Y-100662012D01*
X156757117Y-100689048D01*
X156777809Y-100709740D01*
X156804845Y-100720939D01*
X156834109Y-100720939D01*
X156861145Y-100709740D01*
X156881837Y-100689048D01*
X156893036Y-100662012D01*
X156894477Y-100647380D01*
X156894464Y-100638000D01*
X157078400Y-100638000D01*
X157080475Y-100667190D01*
X157093561Y-100693363D01*
X157115668Y-100712537D01*
X157143431Y-100721791D01*
X157172621Y-100719716D01*
X157198794Y-100706630D01*
X157217968Y-100684523D01*
X157223962Y-100671097D01*
X157485711Y-99882303D01*
X157754320Y-100684522D01*
X157773494Y-100706629D01*
X157799667Y-100719716D01*
X157828857Y-100721791D01*
X157856619Y-100712537D01*
X157878727Y-100693363D01*
X157891813Y-100667189D01*
X157893888Y-100637999D01*
X157890628Y-100623663D01*
X157558850Y-99632784D01*
X157558480Y-99627571D01*
X157554316Y-99619244D01*
X157551301Y-99610237D01*
X157547789Y-99606188D01*
X157545394Y-99601397D01*
X157538290Y-99595235D01*
X157532127Y-99588130D01*
X157527333Y-99585733D01*
X157523286Y-99582223D01*
X157514364Y-99579249D01*
X157505954Y-99575044D01*
X157500609Y-99574664D01*
X157495524Y-99572969D01*
X157486144Y-99573635D01*
X157476764Y-99572969D01*
X157471678Y-99574664D01*
X157466334Y-99575044D01*
X157457926Y-99579248D01*
X157449001Y-99582223D01*
X157444950Y-99585736D01*
X157440161Y-99588131D01*
X157434002Y-99595231D01*
X157426894Y-99601397D01*
X157424497Y-99606190D01*
X157420987Y-99610238D01*
X157414993Y-99623663D01*
X157078400Y-100638000D01*
X156894464Y-100638000D01*
X156893036Y-99632748D01*
X156881837Y-99605712D01*
X156861145Y-99585020D01*
X156834109Y-99573821D01*
X156804845Y-99573821D01*
X156777809Y-99585020D01*
X156757117Y-99605712D01*
X156745918Y-99632748D01*
X156744477Y-99647380D01*
X156416867Y-99647380D01*
X156416846Y-99632748D01*
X156405647Y-99605712D01*
X156384955Y-99585020D01*
X156357919Y-99573821D01*
X156328655Y-99573821D01*
X156301619Y-99585020D01*
X156280927Y-99605712D01*
X156269728Y-99632748D01*
X156268287Y-99647380D01*
X156268850Y-100044397D01*
X156208545Y-100104914D01*
X155821927Y-99591539D01*
X155796746Y-99576630D01*
X155767777Y-99572491D01*
X155739429Y-99579754D01*
X155716018Y-99597312D01*
X155701109Y-99622493D01*
X155696970Y-99651462D01*
X154547001Y-99651462D01*
X154538653Y-99643274D01*
X154532129Y-99635751D01*
X154528931Y-99633738D01*
X154527812Y-99632640D01*
X154525984Y-99631883D01*
X154519686Y-99627918D01*
X154433795Y-99586241D01*
X154432574Y-99585020D01*
X154423714Y-99581349D01*
X154410716Y-99575043D01*
X154408026Y-99574851D01*
X154405538Y-99573821D01*
X154390906Y-99572380D01*
X154211817Y-99573638D01*
X154209810Y-99572969D01*
X154199137Y-99573727D01*
X154185798Y-99573821D01*
X154183309Y-99574851D01*
X154180620Y-99575043D01*
X154166889Y-99580298D01*
X154072346Y-99628984D01*
X154063524Y-99632639D01*
X154060615Y-99635026D01*
X154059208Y-99635751D01*
X154057912Y-99637244D01*
X154052159Y-99641967D01*
X153963563Y-99732288D01*
X153959562Y-99734690D01*
X153954475Y-99741553D01*
X153947594Y-99748570D01*
X153945460Y-99753720D01*
X153942140Y-99758202D01*
X153937193Y-99772048D01*
X153891952Y-99958413D01*
X153888776Y-99966082D01*
X153887878Y-99975196D01*
X153887424Y-99977068D01*
X153887586Y-99978160D01*
X153887335Y-99980714D01*
X153607597Y-99980714D01*
X153607368Y-99849654D01*
X153608174Y-99847237D01*
X153607343Y-99835549D01*
X153607322Y-99823225D01*
X153606291Y-99820736D01*
X153606100Y-99818047D01*
X153600845Y-99804316D01*
X153552153Y-99709761D01*
X153548504Y-99700951D01*
X153546121Y-99698048D01*
X153545394Y-99696635D01*
X153543895Y-99695335D01*
X153539177Y-99689586D01*
X153490142Y-99642245D01*
X153484510Y-99635751D01*
X153481364Y-99633770D01*
X153480193Y-99632640D01*
X153478365Y-99631883D01*
X153472067Y-99627918D01*
X153386176Y-99586241D01*
X153384955Y-99585020D01*
X153376095Y-99581349D01*
X153363097Y-99575043D01*
X153360407Y-99574851D01*
X153357919Y-99573821D01*
X153343287Y-99572380D01*
X153164198Y-99573638D01*
X153162191Y-99572969D01*
X153151518Y-99573727D01*
X153138179Y-99573821D01*
X153135690Y-99574851D01*
X153133001Y-99575043D01*
X153119270Y-99580298D01*
X153024722Y-99628987D01*
X153015905Y-99632640D01*
X153012999Y-99635024D01*
X153011589Y-99635751D01*
X153010292Y-99637246D01*
X153004540Y-99641967D01*
X152957198Y-99691002D01*
X152950704Y-99696635D01*
X152948724Y-99699780D01*
X152947594Y-99700951D01*
X152946836Y-99702778D01*
X152942872Y-99709078D01*
X152901197Y-99794966D01*
X152899975Y-99796189D01*
X152896302Y-99805054D01*
X152889998Y-99818048D01*
X152889807Y-99820735D01*
X152888776Y-99823225D01*
X152887335Y-99837857D01*
X152417137Y-99837857D01*
X152416846Y-99632748D01*
X152405647Y-99605712D01*
X152384955Y-99585020D01*
X152357919Y-99573821D01*
X152328655Y-99573821D01*
X152301619Y-99585020D01*
X152280927Y-99605712D01*
X152269728Y-99632748D01*
X152268287Y-99647380D01*
X152269601Y-100573263D01*
X152042941Y-100573821D01*
X152015905Y-100585020D01*
X151995213Y-100605712D01*
X151984014Y-100632748D01*
X151872903Y-100632748D01*
X151872903Y-99461269D01*
X158004999Y-99461269D01*
X158004999Y-100833491D01*
G37*
X160634173Y-99942585D02*
X160169887Y-99942585D01*
X160169887Y-99942585D02*
X160419887Y-99656871D01*
X160419887Y-99656871D02*
X160312744Y-99656871D01*
X160312744Y-99656871D02*
X160241316Y-99621157D01*
X160241316Y-99621157D02*
X160205601Y-99585442D01*
X160205601Y-99585442D02*
X160169887Y-99514014D01*
X160169887Y-99514014D02*
X160169887Y-99335442D01*
X160169887Y-99335442D02*
X160205601Y-99264014D01*
X160205601Y-99264014D02*
X160241316Y-99228300D01*
X160241316Y-99228300D02*
X160312744Y-99192585D01*
X160312744Y-99192585D02*
X160527030Y-99192585D01*
X160527030Y-99192585D02*
X160598458Y-99228300D01*
X160598458Y-99228300D02*
X160634173Y-99264014D01*
X159919887Y-99692585D02*
X159741315Y-99192585D01*
X159741315Y-99192585D02*
X159562744Y-99692585D01*
X159348458Y-99942585D02*
X158884172Y-99942585D01*
X158884172Y-99942585D02*
X159134172Y-99656871D01*
X159134172Y-99656871D02*
X159027029Y-99656871D01*
X159027029Y-99656871D02*
X158955601Y-99621157D01*
X158955601Y-99621157D02*
X158919886Y-99585442D01*
X158919886Y-99585442D02*
X158884172Y-99514014D01*
X158884172Y-99514014D02*
X158884172Y-99335442D01*
X158884172Y-99335442D02*
X158919886Y-99264014D01*
X158919886Y-99264014D02*
X158955601Y-99228300D01*
X158955601Y-99228300D02*
X159027029Y-99192585D01*
X159027029Y-99192585D02*
X159241315Y-99192585D01*
X159241315Y-99192585D02*
X159312743Y-99228300D01*
X159312743Y-99228300D02*
X159348458Y-99264014D01*
D10*
X161676666Y-103341419D02*
X161676666Y-104055704D01*
X161676666Y-104055704D02*
X161629047Y-104198561D01*
X161629047Y-104198561D02*
X161533809Y-104293800D01*
X161533809Y-104293800D02*
X161390952Y-104341419D01*
X161390952Y-104341419D02*
X161295714Y-104341419D01*
X162057619Y-103341419D02*
X162676666Y-103341419D01*
X162676666Y-103341419D02*
X162343333Y-103722371D01*
X162343333Y-103722371D02*
X162486190Y-103722371D01*
X162486190Y-103722371D02*
X162581428Y-103769990D01*
X162581428Y-103769990D02*
X162629047Y-103817609D01*
X162629047Y-103817609D02*
X162676666Y-103912847D01*
X162676666Y-103912847D02*
X162676666Y-104150942D01*
X162676666Y-104150942D02*
X162629047Y-104246180D01*
X162629047Y-104246180D02*
X162581428Y-104293800D01*
X162581428Y-104293800D02*
X162486190Y-104341419D01*
X162486190Y-104341419D02*
X162200476Y-104341419D01*
X162200476Y-104341419D02*
X162105238Y-104293800D01*
X162105238Y-104293800D02*
X162057619Y-104246180D01*
X146436666Y-103351419D02*
X146436666Y-104065704D01*
X146436666Y-104065704D02*
X146389047Y-104208561D01*
X146389047Y-104208561D02*
X146293809Y-104303800D01*
X146293809Y-104303800D02*
X146150952Y-104351419D01*
X146150952Y-104351419D02*
X146055714Y-104351419D01*
X147436666Y-104351419D02*
X146865238Y-104351419D01*
X147150952Y-104351419D02*
X147150952Y-103351419D01*
X147150952Y-103351419D02*
X147055714Y-103494276D01*
X147055714Y-103494276D02*
X146960476Y-103589514D01*
X146960476Y-103589514D02*
X146865238Y-103637133D01*
D12*
%TO.C,J4*%
X149440000Y-92098000D02*
X149440000Y-94481000D01*
X149440000Y-92098000D02*
X160440000Y-92098000D01*
X149440000Y-96932000D02*
X149440000Y-98593000D01*
X149440000Y-98593000D02*
X151809000Y-98593000D01*
X160440000Y-92098000D02*
X160440000Y-94481000D01*
X160440000Y-96932000D02*
X160440000Y-98593000D01*
X160440000Y-98593000D02*
X158071000Y-98593000D01*
X158496000Y-99101000D02*
G75*
G02*
X158242000Y-99101000I-127000J0D01*
G01*
X158242000Y-99101000D02*
G75*
G02*
X158496000Y-99101000I127000J0D01*
G01*
%TD*%
%LPC*%
D13*
%TO.C,J2*%
X151125000Y-102108000D03*
X153675000Y-102108000D03*
X156210000Y-102108000D03*
X158745000Y-102108000D03*
%TD*%
D14*
%TO.C,J4*%
X157690000Y-98431000D03*
X157190000Y-98431000D03*
X156690000Y-98431000D03*
X156190000Y-98431000D03*
X155690000Y-98431000D03*
X155190000Y-98431000D03*
X154690000Y-98431000D03*
X154190000Y-98431000D03*
X153690000Y-98431000D03*
X153190000Y-98431000D03*
X152690000Y-98431000D03*
X152190000Y-98431000D03*
D15*
X150390000Y-95707000D03*
X159490000Y-95707000D03*
%TD*%
D13*
%TO.C,J3*%
X162560000Y-92954000D03*
X162560000Y-95504000D03*
X162560000Y-98039000D03*
X162560000Y-100574000D03*
%TD*%
%TO.C,J1*%
X147320000Y-92964000D03*
X147320000Y-95514000D03*
X147320000Y-98049000D03*
X147320000Y-100584000D03*
%TD*%
%LPD*%
M02*
