%TF.GenerationSoftware,KiCad,Pcbnew,8.0.3*%
%TF.CreationDate,2024-06-16T14:02:55-05:00*%
%TF.ProjectId,EZ-VIK_panelized_panelized_panelized_panelized,455a2d56-494b-45f7-9061-6e656c697a65,rev?*%
%TF.SameCoordinates,Original*%
%TF.FileFunction,Soldermask,Top*%
%TF.FilePolarity,Negative*%
%FSLAX46Y46*%
G04 Gerber Fmt 4.6, Leading zero omitted, Abs format (unit mm)*
G04 Created by KiCad (PCBNEW 8.0.3) date 2024-06-16 14:02:55*
%MOMM*%
%LPD*%
G01*
G04 APERTURE LIST*
%ADD10R,1.680000X1.680000*%
%ADD11C,3.000000*%
%ADD12R,0.280000X1.250000*%
%ADD13R,1.800000X2.000000*%
G04 APERTURE END LIST*
D10*
%TO.C,J2*%
X209928600Y-102722102D03*
X212478600Y-102722102D03*
X215013600Y-102722102D03*
X217548600Y-102722102D03*
%TD*%
%TO.C,J3*%
X145163478Y-55391411D03*
X145163478Y-52841411D03*
X145163478Y-50306411D03*
X145163478Y-47771411D03*
%TD*%
D11*
%TO.C,*%
X220980000Y-106680000D03*
%TD*%
D10*
%TO.C,J1*%
X187487322Y-93576478D03*
X187487322Y-96126478D03*
X187487322Y-98661478D03*
X187487322Y-101196478D03*
%TD*%
%TO.C,J2*%
X175218978Y-76111511D03*
X172668978Y-76111511D03*
X170133978Y-76111511D03*
X167598978Y-76111511D03*
%TD*%
%TO.C,J2*%
X198800800Y-46250600D03*
X196250800Y-46250600D03*
X193715800Y-46250600D03*
X191180800Y-46250600D03*
%TD*%
%TO.C,J3*%
X179027500Y-63670700D03*
X179027500Y-66220700D03*
X179027500Y-68755700D03*
X179027500Y-71290700D03*
%TD*%
%TO.C,J2*%
X149090000Y-102707289D03*
X151640000Y-102707289D03*
X154175000Y-102707289D03*
X156710000Y-102707289D03*
%TD*%
%TO.C,J1*%
X179023978Y-85255511D03*
X179023978Y-82705511D03*
X179023978Y-80170511D03*
X179023978Y-77635511D03*
%TD*%
%TO.C,J2*%
X217342800Y-46250600D03*
X214792800Y-46250600D03*
X212257800Y-46250600D03*
X209722800Y-46250600D03*
%TD*%
%TO.C,J1*%
X163787500Y-63680700D03*
X163787500Y-66230700D03*
X163787500Y-68765700D03*
X163787500Y-71300700D03*
%TD*%
%TO.C,J1*%
X202605800Y-55394600D03*
X202605800Y-52844600D03*
X202605800Y-50309600D03*
X202605800Y-47774600D03*
%TD*%
D12*
%TO.C,J22*%
X155655000Y-99030289D03*
X155155000Y-99030289D03*
X154655000Y-99030289D03*
X154155000Y-99030289D03*
X153655000Y-99030289D03*
X153155000Y-99030289D03*
X152655000Y-99030289D03*
X152155000Y-99030289D03*
X151655000Y-99030289D03*
X151155000Y-99030289D03*
X150655000Y-99030289D03*
X150155000Y-99030289D03*
D13*
X148355000Y-96306289D03*
X157455000Y-96306289D03*
%TD*%
D10*
%TO.C,J3*%
X179106000Y-93544800D03*
X179106000Y-96094800D03*
X179106000Y-98629800D03*
X179106000Y-101164800D03*
%TD*%
%TO.C,J3*%
X163705478Y-55391411D03*
X163705478Y-52841411D03*
X163705478Y-50306411D03*
X163705478Y-47771411D03*
%TD*%
D12*
%TO.C,J16*%
X197778822Y-69169378D03*
X197278822Y-69169378D03*
X196778822Y-69169378D03*
X196278822Y-69169378D03*
X195778822Y-69169378D03*
X195278822Y-69169378D03*
X194778822Y-69169378D03*
X194278822Y-69169378D03*
X193778822Y-69169378D03*
X193278822Y-69169378D03*
X192778822Y-69169378D03*
X192278822Y-69169378D03*
D13*
X190478822Y-66445378D03*
X199578822Y-66445378D03*
%TD*%
D10*
%TO.C,J1*%
X202684300Y-85268700D03*
X202684300Y-82718700D03*
X202684300Y-80183700D03*
X202684300Y-77648700D03*
%TD*%
D12*
%TO.C,13*%
X210777800Y-49927600D03*
X211277800Y-49927600D03*
X211777800Y-49927600D03*
X212277800Y-49927600D03*
X212777800Y-49927600D03*
X213277800Y-49927600D03*
X213777800Y-49927600D03*
X214277800Y-49927600D03*
X214777800Y-49927600D03*
X215277800Y-49927600D03*
X215777800Y-49927600D03*
X216277800Y-49927600D03*
D13*
X218077800Y-52651600D03*
X208977800Y-52651600D03*
%TD*%
D10*
%TO.C,J2*%
X156598478Y-46237411D03*
X154048478Y-46237411D03*
X151513478Y-46237411D03*
X148978478Y-46237411D03*
%TD*%
D12*
%TO.C,J14*%
X155576500Y-69156189D03*
X155076500Y-69156189D03*
X154576500Y-69156189D03*
X154076500Y-69156189D03*
X153576500Y-69156189D03*
X153076500Y-69156189D03*
X152576500Y-69156189D03*
X152076500Y-69156189D03*
X151576500Y-69156189D03*
X151076500Y-69156189D03*
X150576500Y-69156189D03*
X150076500Y-69156189D03*
D13*
X148276500Y-66432189D03*
X157376500Y-66432189D03*
%TD*%
D10*
%TO.C,J3*%
X205907800Y-55404600D03*
X205907800Y-52854600D03*
X205907800Y-50319600D03*
X205907800Y-47784600D03*
%TD*%
%TO.C,J2*%
X167671000Y-102698800D03*
X170221000Y-102698800D03*
X172756000Y-102698800D03*
X175291000Y-102698800D03*
%TD*%
%TO.C,J3*%
X202727322Y-93566478D03*
X202727322Y-96116478D03*
X202727322Y-98651478D03*
X202727322Y-101186478D03*
%TD*%
%TO.C,J3*%
X160525000Y-93553289D03*
X160525000Y-96103289D03*
X160525000Y-98638289D03*
X160525000Y-101173289D03*
%TD*%
%TO.C,J3*%
X187444300Y-85278700D03*
X187444300Y-82728700D03*
X187444300Y-80193700D03*
X187444300Y-77658700D03*
%TD*%
%TO.C,J2*%
X209850100Y-72848002D03*
X212400100Y-72848002D03*
X214935100Y-72848002D03*
X217470100Y-72848002D03*
%TD*%
D11*
%TO.C,*%
X146304000Y-42164000D03*
%TD*%
D10*
%TO.C,J3*%
X163783978Y-85265511D03*
X163783978Y-82715511D03*
X163783978Y-80180511D03*
X163783978Y-77645511D03*
%TD*%
D11*
%TO.C,*%
X146812000Y-106680000D03*
%TD*%
D12*
%TO.C,J24*%
X197857322Y-99043478D03*
X197357322Y-99043478D03*
X196857322Y-99043478D03*
X196357322Y-99043478D03*
X195857322Y-99043478D03*
X195357322Y-99043478D03*
X194857322Y-99043478D03*
X194357322Y-99043478D03*
X193857322Y-99043478D03*
X193357322Y-99043478D03*
X192857322Y-99043478D03*
X192357322Y-99043478D03*
D13*
X190557322Y-96319478D03*
X199657322Y-96319478D03*
%TD*%
D10*
%TO.C,J3*%
X221363600Y-93568102D03*
X221363600Y-96118102D03*
X221363600Y-98653102D03*
X221363600Y-101188102D03*
%TD*%
%TO.C,J2*%
X156676978Y-76111511D03*
X154126978Y-76111511D03*
X151591978Y-76111511D03*
X149056978Y-76111511D03*
%TD*%
%TO.C,J3*%
X145241978Y-85265511D03*
X145241978Y-82715511D03*
X145241978Y-80180511D03*
X145241978Y-77645511D03*
%TD*%
D12*
%TO.C,J25*%
X216493600Y-99045102D03*
X215993600Y-99045102D03*
X215493600Y-99045102D03*
X214993600Y-99045102D03*
X214493600Y-99045102D03*
X213993600Y-99045102D03*
X213493600Y-99045102D03*
X212993600Y-99045102D03*
X212493600Y-99045102D03*
X211993600Y-99045102D03*
X211493600Y-99045102D03*
X210993600Y-99045102D03*
D13*
X209193600Y-96321102D03*
X218293600Y-96321102D03*
%TD*%
D10*
%TO.C,J1*%
X145206500Y-63689189D03*
X145206500Y-66239189D03*
X145206500Y-68774189D03*
X145206500Y-71309189D03*
%TD*%
%TO.C,J3*%
X221285100Y-63694002D03*
X221285100Y-66244002D03*
X221285100Y-68779002D03*
X221285100Y-71314002D03*
%TD*%
%TO.C,J1*%
X160403478Y-55381411D03*
X160403478Y-52831411D03*
X160403478Y-50296411D03*
X160403478Y-47761411D03*
%TD*%
%TO.C,J2*%
X191292322Y-102720478D03*
X193842322Y-102720478D03*
X196377322Y-102720478D03*
X198912322Y-102720478D03*
%TD*%
D12*
%TO.C,J15*%
X174157500Y-69147700D03*
X173657500Y-69147700D03*
X173157500Y-69147700D03*
X172657500Y-69147700D03*
X172157500Y-69147700D03*
X171657500Y-69147700D03*
X171157500Y-69147700D03*
X170657500Y-69147700D03*
X170157500Y-69147700D03*
X169657500Y-69147700D03*
X169157500Y-69147700D03*
X168657500Y-69147700D03*
D13*
X166857500Y-66423700D03*
X175957500Y-66423700D03*
%TD*%
D10*
%TO.C,J3*%
X160446500Y-63679189D03*
X160446500Y-66229189D03*
X160446500Y-68764189D03*
X160446500Y-71299189D03*
%TD*%
%TO.C,J2*%
X198879300Y-76124700D03*
X196329300Y-76124700D03*
X193794300Y-76124700D03*
X191259300Y-76124700D03*
%TD*%
%TO.C,J1*%
X206123600Y-93578102D03*
X206123600Y-96128102D03*
X206123600Y-98663102D03*
X206123600Y-101198102D03*
%TD*%
%TO.C,J1*%
X206045100Y-63704002D03*
X206045100Y-66254002D03*
X206045100Y-68789002D03*
X206045100Y-71324002D03*
%TD*%
%TO.C,J3*%
X187365800Y-55404600D03*
X187365800Y-52854600D03*
X187365800Y-50319600D03*
X187365800Y-47784600D03*
%TD*%
%TO.C,J3*%
X202648822Y-63692378D03*
X202648822Y-66242378D03*
X202648822Y-68777378D03*
X202648822Y-71312378D03*
%TD*%
D12*
%TO.C,J17*%
X216415100Y-69171002D03*
X215915100Y-69171002D03*
X215415100Y-69171002D03*
X214915100Y-69171002D03*
X214415100Y-69171002D03*
X213915100Y-69171002D03*
X213415100Y-69171002D03*
X212915100Y-69171002D03*
X212415100Y-69171002D03*
X211915100Y-69171002D03*
X211415100Y-69171002D03*
X210915100Y-69171002D03*
D13*
X209115100Y-66447002D03*
X218215100Y-66447002D03*
%TD*%
D12*
%TO.C,J19*%
X168653978Y-79788511D03*
X169153978Y-79788511D03*
X169653978Y-79788511D03*
X170153978Y-79788511D03*
X170653978Y-79788511D03*
X171153978Y-79788511D03*
X171653978Y-79788511D03*
X172153978Y-79788511D03*
X172653978Y-79788511D03*
X173153978Y-79788511D03*
X173653978Y-79788511D03*
X174153978Y-79788511D03*
D13*
X175953978Y-82512511D03*
X166853978Y-82512511D03*
%TD*%
D10*
%TO.C,J2*%
X167592500Y-72824700D03*
X170142500Y-72824700D03*
X172677500Y-72824700D03*
X175212500Y-72824700D03*
%TD*%
%TO.C,J1*%
X145285000Y-93563289D03*
X145285000Y-96113289D03*
X145285000Y-98648289D03*
X145285000Y-101183289D03*
%TD*%
D12*
%TO.C,J11*%
X168575478Y-49914411D03*
X169075478Y-49914411D03*
X169575478Y-49914411D03*
X170075478Y-49914411D03*
X170575478Y-49914411D03*
X171075478Y-49914411D03*
X171575478Y-49914411D03*
X172075478Y-49914411D03*
X172575478Y-49914411D03*
X173075478Y-49914411D03*
X173575478Y-49914411D03*
X174075478Y-49914411D03*
D13*
X175875478Y-52638411D03*
X166775478Y-52638411D03*
%TD*%
D10*
%TO.C,J2*%
X175140478Y-46237411D03*
X172590478Y-46237411D03*
X170055478Y-46237411D03*
X167520478Y-46237411D03*
%TD*%
D12*
%TO.C,J20*%
X192314300Y-79801700D03*
X192814300Y-79801700D03*
X193314300Y-79801700D03*
X193814300Y-79801700D03*
X194314300Y-79801700D03*
X194814300Y-79801700D03*
X195314300Y-79801700D03*
X195814300Y-79801700D03*
X196314300Y-79801700D03*
X196814300Y-79801700D03*
X197314300Y-79801700D03*
X197814300Y-79801700D03*
D13*
X199614300Y-82525700D03*
X190514300Y-82525700D03*
%TD*%
D10*
%TO.C,J2*%
X217421300Y-76124700D03*
X214871300Y-76124700D03*
X212336300Y-76124700D03*
X209801300Y-76124700D03*
%TD*%
%TO.C,J1*%
X178945478Y-55381411D03*
X178945478Y-52831411D03*
X178945478Y-50296411D03*
X178945478Y-47761411D03*
%TD*%
%TO.C,J3*%
X205986300Y-85278700D03*
X205986300Y-82728700D03*
X205986300Y-80193700D03*
X205986300Y-77658700D03*
%TD*%
D12*
%TO.C,J12*%
X192235800Y-49927600D03*
X192735800Y-49927600D03*
X193235800Y-49927600D03*
X193735800Y-49927600D03*
X194235800Y-49927600D03*
X194735800Y-49927600D03*
X195235800Y-49927600D03*
X195735800Y-49927600D03*
X196235800Y-49927600D03*
X196735800Y-49927600D03*
X197235800Y-49927600D03*
X197735800Y-49927600D03*
D13*
X199535800Y-52651600D03*
X190435800Y-52651600D03*
%TD*%
D10*
%TO.C,J1*%
X163866000Y-93554800D03*
X163866000Y-96104800D03*
X163866000Y-98639800D03*
X163866000Y-101174800D03*
%TD*%
%TO.C,J1*%
X160481978Y-85255511D03*
X160481978Y-82705511D03*
X160481978Y-80170511D03*
X160481978Y-77635511D03*
%TD*%
%TO.C,J2*%
X149011500Y-72833189D03*
X151561500Y-72833189D03*
X154096500Y-72833189D03*
X156631500Y-72833189D03*
%TD*%
%TO.C,J2*%
X191213822Y-72846378D03*
X193763822Y-72846378D03*
X196298822Y-72846378D03*
X198833822Y-72846378D03*
%TD*%
D12*
%TO.C,J18*%
X150111978Y-79788511D03*
X150611978Y-79788511D03*
X151111978Y-79788511D03*
X151611978Y-79788511D03*
X152111978Y-79788511D03*
X152611978Y-79788511D03*
X153111978Y-79788511D03*
X153611978Y-79788511D03*
X154111978Y-79788511D03*
X154611978Y-79788511D03*
X155111978Y-79788511D03*
X155611978Y-79788511D03*
D13*
X157411978Y-82512511D03*
X148311978Y-82512511D03*
%TD*%
D12*
%TO.C,J10*%
X150033478Y-49914411D03*
X150533478Y-49914411D03*
X151033478Y-49914411D03*
X151533478Y-49914411D03*
X152033478Y-49914411D03*
X152533478Y-49914411D03*
X153033478Y-49914411D03*
X153533478Y-49914411D03*
X154033478Y-49914411D03*
X154533478Y-49914411D03*
X155033478Y-49914411D03*
X155533478Y-49914411D03*
D13*
X157333478Y-52638411D03*
X148233478Y-52638411D03*
%TD*%
D10*
%TO.C,J1*%
X187408822Y-63702378D03*
X187408822Y-66252378D03*
X187408822Y-68787378D03*
X187408822Y-71322378D03*
%TD*%
D12*
%TO.C,J23*%
X174236000Y-99021800D03*
X173736000Y-99021800D03*
X173236000Y-99021800D03*
X172736000Y-99021800D03*
X172236000Y-99021800D03*
X171736000Y-99021800D03*
X171236000Y-99021800D03*
X170736000Y-99021800D03*
X170236000Y-99021800D03*
X169736000Y-99021800D03*
X169236000Y-99021800D03*
X168736000Y-99021800D03*
D13*
X166936000Y-96297800D03*
X176036000Y-96297800D03*
%TD*%
D10*
%TO.C,J1*%
X221147800Y-55394600D03*
X221147800Y-52844600D03*
X221147800Y-50309600D03*
X221147800Y-47774600D03*
%TD*%
D11*
%TO.C,*%
X220472000Y-42164000D03*
%TD*%
D10*
%TO.C,J1*%
X221226300Y-85268700D03*
X221226300Y-82718700D03*
X221226300Y-80183700D03*
X221226300Y-77648700D03*
%TD*%
D12*
%TO.C,J21*%
X210856300Y-79801700D03*
X211356300Y-79801700D03*
X211856300Y-79801700D03*
X212356300Y-79801700D03*
X212856300Y-79801700D03*
X213356300Y-79801700D03*
X213856300Y-79801700D03*
X214356300Y-79801700D03*
X214856300Y-79801700D03*
X215356300Y-79801700D03*
X215856300Y-79801700D03*
X216356300Y-79801700D03*
D13*
X218156300Y-82525700D03*
X209056300Y-82525700D03*
%TD*%
M02*
