%TF.GenerationSoftware,KiCad,Pcbnew,8.0.3*%
%TF.CreationDate,2024-06-16T14:02:55-05:00*%
%TF.ProjectId,EZ-VIK_panelized_panelized_panelized_panelized,455a2d56-494b-45f7-9061-6e656c697a65,rev?*%
%TF.SameCoordinates,Original*%
%TF.FileFunction,Other,Comment*%
%FSLAX46Y46*%
G04 Gerber Fmt 4.6, Leading zero omitted, Abs format (unit mm)*
G04 Created by KiCad (PCBNEW 8.0.3) date 2024-06-16 14:02:55*
%MOMM*%
%LPD*%
G01*
G04 APERTURE LIST*
%ADD10C,0.500000*%
%ADD11C,0.250000*%
%ADD12C,0.120000*%
G04 APERTURE END LIST*
D10*
X131760000Y-56990000D02*
X236130000Y-56990000D01*
X131810000Y-62120000D02*
X236180000Y-62120000D01*
X131160000Y-86820000D02*
X235530000Y-86820000D01*
X131010000Y-91930000D02*
X235380000Y-91930000D01*
D11*
X115036003Y-90842238D02*
X115702669Y-92842238D01*
X115702669Y-92842238D02*
X116369336Y-90842238D01*
X117036003Y-92080333D02*
X118559813Y-92080333D01*
X119416955Y-92747000D02*
X119702669Y-92842238D01*
X119702669Y-92842238D02*
X120178860Y-92842238D01*
X120178860Y-92842238D02*
X120369336Y-92747000D01*
X120369336Y-92747000D02*
X120464574Y-92651761D01*
X120464574Y-92651761D02*
X120559812Y-92461285D01*
X120559812Y-92461285D02*
X120559812Y-92270809D01*
X120559812Y-92270809D02*
X120464574Y-92080333D01*
X120464574Y-92080333D02*
X120369336Y-91985095D01*
X120369336Y-91985095D02*
X120178860Y-91889857D01*
X120178860Y-91889857D02*
X119797907Y-91794619D01*
X119797907Y-91794619D02*
X119607431Y-91699380D01*
X119607431Y-91699380D02*
X119512193Y-91604142D01*
X119512193Y-91604142D02*
X119416955Y-91413666D01*
X119416955Y-91413666D02*
X119416955Y-91223190D01*
X119416955Y-91223190D02*
X119512193Y-91032714D01*
X119512193Y-91032714D02*
X119607431Y-90937476D01*
X119607431Y-90937476D02*
X119797907Y-90842238D01*
X119797907Y-90842238D02*
X120274098Y-90842238D01*
X120274098Y-90842238D02*
X120559812Y-90937476D01*
X122559812Y-92651761D02*
X122464574Y-92747000D01*
X122464574Y-92747000D02*
X122178860Y-92842238D01*
X122178860Y-92842238D02*
X121988384Y-92842238D01*
X121988384Y-92842238D02*
X121702669Y-92747000D01*
X121702669Y-92747000D02*
X121512193Y-92556523D01*
X121512193Y-92556523D02*
X121416955Y-92366047D01*
X121416955Y-92366047D02*
X121321717Y-91985095D01*
X121321717Y-91985095D02*
X121321717Y-91699380D01*
X121321717Y-91699380D02*
X121416955Y-91318428D01*
X121416955Y-91318428D02*
X121512193Y-91127952D01*
X121512193Y-91127952D02*
X121702669Y-90937476D01*
X121702669Y-90937476D02*
X121988384Y-90842238D01*
X121988384Y-90842238D02*
X122178860Y-90842238D01*
X122178860Y-90842238D02*
X122464574Y-90937476D01*
X122464574Y-90937476D02*
X122559812Y-91032714D01*
X123797907Y-90842238D02*
X124178860Y-90842238D01*
X124178860Y-90842238D02*
X124369336Y-90937476D01*
X124369336Y-90937476D02*
X124559812Y-91127952D01*
X124559812Y-91127952D02*
X124655050Y-91508904D01*
X124655050Y-91508904D02*
X124655050Y-92175571D01*
X124655050Y-92175571D02*
X124559812Y-92556523D01*
X124559812Y-92556523D02*
X124369336Y-92747000D01*
X124369336Y-92747000D02*
X124178860Y-92842238D01*
X124178860Y-92842238D02*
X123797907Y-92842238D01*
X123797907Y-92842238D02*
X123607431Y-92747000D01*
X123607431Y-92747000D02*
X123416955Y-92556523D01*
X123416955Y-92556523D02*
X123321717Y-92175571D01*
X123321717Y-92175571D02*
X123321717Y-91508904D01*
X123321717Y-91508904D02*
X123416955Y-91127952D01*
X123416955Y-91127952D02*
X123607431Y-90937476D01*
X123607431Y-90937476D02*
X123797907Y-90842238D01*
X126655050Y-92842238D02*
X125988383Y-91889857D01*
X125512193Y-92842238D02*
X125512193Y-90842238D01*
X125512193Y-90842238D02*
X126274098Y-90842238D01*
X126274098Y-90842238D02*
X126464574Y-90937476D01*
X126464574Y-90937476D02*
X126559812Y-91032714D01*
X126559812Y-91032714D02*
X126655050Y-91223190D01*
X126655050Y-91223190D02*
X126655050Y-91508904D01*
X126655050Y-91508904D02*
X126559812Y-91699380D01*
X126559812Y-91699380D02*
X126464574Y-91794619D01*
X126464574Y-91794619D02*
X126274098Y-91889857D01*
X126274098Y-91889857D02*
X125512193Y-91889857D01*
X127512193Y-91794619D02*
X128178860Y-91794619D01*
X128464574Y-92842238D02*
X127512193Y-92842238D01*
X127512193Y-92842238D02*
X127512193Y-90842238D01*
X127512193Y-90842238D02*
X128464574Y-90842238D01*
X115186003Y-85732238D02*
X115852669Y-87732238D01*
X115852669Y-87732238D02*
X116519336Y-85732238D01*
X117186003Y-86970333D02*
X118709813Y-86970333D01*
X119566955Y-87637000D02*
X119852669Y-87732238D01*
X119852669Y-87732238D02*
X120328860Y-87732238D01*
X120328860Y-87732238D02*
X120519336Y-87637000D01*
X120519336Y-87637000D02*
X120614574Y-87541761D01*
X120614574Y-87541761D02*
X120709812Y-87351285D01*
X120709812Y-87351285D02*
X120709812Y-87160809D01*
X120709812Y-87160809D02*
X120614574Y-86970333D01*
X120614574Y-86970333D02*
X120519336Y-86875095D01*
X120519336Y-86875095D02*
X120328860Y-86779857D01*
X120328860Y-86779857D02*
X119947907Y-86684619D01*
X119947907Y-86684619D02*
X119757431Y-86589380D01*
X119757431Y-86589380D02*
X119662193Y-86494142D01*
X119662193Y-86494142D02*
X119566955Y-86303666D01*
X119566955Y-86303666D02*
X119566955Y-86113190D01*
X119566955Y-86113190D02*
X119662193Y-85922714D01*
X119662193Y-85922714D02*
X119757431Y-85827476D01*
X119757431Y-85827476D02*
X119947907Y-85732238D01*
X119947907Y-85732238D02*
X120424098Y-85732238D01*
X120424098Y-85732238D02*
X120709812Y-85827476D01*
X122709812Y-87541761D02*
X122614574Y-87637000D01*
X122614574Y-87637000D02*
X122328860Y-87732238D01*
X122328860Y-87732238D02*
X122138384Y-87732238D01*
X122138384Y-87732238D02*
X121852669Y-87637000D01*
X121852669Y-87637000D02*
X121662193Y-87446523D01*
X121662193Y-87446523D02*
X121566955Y-87256047D01*
X121566955Y-87256047D02*
X121471717Y-86875095D01*
X121471717Y-86875095D02*
X121471717Y-86589380D01*
X121471717Y-86589380D02*
X121566955Y-86208428D01*
X121566955Y-86208428D02*
X121662193Y-86017952D01*
X121662193Y-86017952D02*
X121852669Y-85827476D01*
X121852669Y-85827476D02*
X122138384Y-85732238D01*
X122138384Y-85732238D02*
X122328860Y-85732238D01*
X122328860Y-85732238D02*
X122614574Y-85827476D01*
X122614574Y-85827476D02*
X122709812Y-85922714D01*
X123947907Y-85732238D02*
X124328860Y-85732238D01*
X124328860Y-85732238D02*
X124519336Y-85827476D01*
X124519336Y-85827476D02*
X124709812Y-86017952D01*
X124709812Y-86017952D02*
X124805050Y-86398904D01*
X124805050Y-86398904D02*
X124805050Y-87065571D01*
X124805050Y-87065571D02*
X124709812Y-87446523D01*
X124709812Y-87446523D02*
X124519336Y-87637000D01*
X124519336Y-87637000D02*
X124328860Y-87732238D01*
X124328860Y-87732238D02*
X123947907Y-87732238D01*
X123947907Y-87732238D02*
X123757431Y-87637000D01*
X123757431Y-87637000D02*
X123566955Y-87446523D01*
X123566955Y-87446523D02*
X123471717Y-87065571D01*
X123471717Y-87065571D02*
X123471717Y-86398904D01*
X123471717Y-86398904D02*
X123566955Y-86017952D01*
X123566955Y-86017952D02*
X123757431Y-85827476D01*
X123757431Y-85827476D02*
X123947907Y-85732238D01*
X126805050Y-87732238D02*
X126138383Y-86779857D01*
X125662193Y-87732238D02*
X125662193Y-85732238D01*
X125662193Y-85732238D02*
X126424098Y-85732238D01*
X126424098Y-85732238D02*
X126614574Y-85827476D01*
X126614574Y-85827476D02*
X126709812Y-85922714D01*
X126709812Y-85922714D02*
X126805050Y-86113190D01*
X126805050Y-86113190D02*
X126805050Y-86398904D01*
X126805050Y-86398904D02*
X126709812Y-86589380D01*
X126709812Y-86589380D02*
X126614574Y-86684619D01*
X126614574Y-86684619D02*
X126424098Y-86779857D01*
X126424098Y-86779857D02*
X125662193Y-86779857D01*
X127662193Y-86684619D02*
X128328860Y-86684619D01*
X128614574Y-87732238D02*
X127662193Y-87732238D01*
X127662193Y-87732238D02*
X127662193Y-85732238D01*
X127662193Y-85732238D02*
X128614574Y-85732238D01*
X115786003Y-55902238D02*
X116452669Y-57902238D01*
X116452669Y-57902238D02*
X117119336Y-55902238D01*
X117786003Y-57140333D02*
X119309813Y-57140333D01*
X120166955Y-57807000D02*
X120452669Y-57902238D01*
X120452669Y-57902238D02*
X120928860Y-57902238D01*
X120928860Y-57902238D02*
X121119336Y-57807000D01*
X121119336Y-57807000D02*
X121214574Y-57711761D01*
X121214574Y-57711761D02*
X121309812Y-57521285D01*
X121309812Y-57521285D02*
X121309812Y-57330809D01*
X121309812Y-57330809D02*
X121214574Y-57140333D01*
X121214574Y-57140333D02*
X121119336Y-57045095D01*
X121119336Y-57045095D02*
X120928860Y-56949857D01*
X120928860Y-56949857D02*
X120547907Y-56854619D01*
X120547907Y-56854619D02*
X120357431Y-56759380D01*
X120357431Y-56759380D02*
X120262193Y-56664142D01*
X120262193Y-56664142D02*
X120166955Y-56473666D01*
X120166955Y-56473666D02*
X120166955Y-56283190D01*
X120166955Y-56283190D02*
X120262193Y-56092714D01*
X120262193Y-56092714D02*
X120357431Y-55997476D01*
X120357431Y-55997476D02*
X120547907Y-55902238D01*
X120547907Y-55902238D02*
X121024098Y-55902238D01*
X121024098Y-55902238D02*
X121309812Y-55997476D01*
X123309812Y-57711761D02*
X123214574Y-57807000D01*
X123214574Y-57807000D02*
X122928860Y-57902238D01*
X122928860Y-57902238D02*
X122738384Y-57902238D01*
X122738384Y-57902238D02*
X122452669Y-57807000D01*
X122452669Y-57807000D02*
X122262193Y-57616523D01*
X122262193Y-57616523D02*
X122166955Y-57426047D01*
X122166955Y-57426047D02*
X122071717Y-57045095D01*
X122071717Y-57045095D02*
X122071717Y-56759380D01*
X122071717Y-56759380D02*
X122166955Y-56378428D01*
X122166955Y-56378428D02*
X122262193Y-56187952D01*
X122262193Y-56187952D02*
X122452669Y-55997476D01*
X122452669Y-55997476D02*
X122738384Y-55902238D01*
X122738384Y-55902238D02*
X122928860Y-55902238D01*
X122928860Y-55902238D02*
X123214574Y-55997476D01*
X123214574Y-55997476D02*
X123309812Y-56092714D01*
X124547907Y-55902238D02*
X124928860Y-55902238D01*
X124928860Y-55902238D02*
X125119336Y-55997476D01*
X125119336Y-55997476D02*
X125309812Y-56187952D01*
X125309812Y-56187952D02*
X125405050Y-56568904D01*
X125405050Y-56568904D02*
X125405050Y-57235571D01*
X125405050Y-57235571D02*
X125309812Y-57616523D01*
X125309812Y-57616523D02*
X125119336Y-57807000D01*
X125119336Y-57807000D02*
X124928860Y-57902238D01*
X124928860Y-57902238D02*
X124547907Y-57902238D01*
X124547907Y-57902238D02*
X124357431Y-57807000D01*
X124357431Y-57807000D02*
X124166955Y-57616523D01*
X124166955Y-57616523D02*
X124071717Y-57235571D01*
X124071717Y-57235571D02*
X124071717Y-56568904D01*
X124071717Y-56568904D02*
X124166955Y-56187952D01*
X124166955Y-56187952D02*
X124357431Y-55997476D01*
X124357431Y-55997476D02*
X124547907Y-55902238D01*
X127405050Y-57902238D02*
X126738383Y-56949857D01*
X126262193Y-57902238D02*
X126262193Y-55902238D01*
X126262193Y-55902238D02*
X127024098Y-55902238D01*
X127024098Y-55902238D02*
X127214574Y-55997476D01*
X127214574Y-55997476D02*
X127309812Y-56092714D01*
X127309812Y-56092714D02*
X127405050Y-56283190D01*
X127405050Y-56283190D02*
X127405050Y-56568904D01*
X127405050Y-56568904D02*
X127309812Y-56759380D01*
X127309812Y-56759380D02*
X127214574Y-56854619D01*
X127214574Y-56854619D02*
X127024098Y-56949857D01*
X127024098Y-56949857D02*
X126262193Y-56949857D01*
X128262193Y-56854619D02*
X128928860Y-56854619D01*
X129214574Y-57902238D02*
X128262193Y-57902238D01*
X128262193Y-57902238D02*
X128262193Y-55902238D01*
X128262193Y-55902238D02*
X129214574Y-55902238D01*
X115836003Y-61032238D02*
X116502669Y-63032238D01*
X116502669Y-63032238D02*
X117169336Y-61032238D01*
X117836003Y-62270333D02*
X119359813Y-62270333D01*
X120216955Y-62937000D02*
X120502669Y-63032238D01*
X120502669Y-63032238D02*
X120978860Y-63032238D01*
X120978860Y-63032238D02*
X121169336Y-62937000D01*
X121169336Y-62937000D02*
X121264574Y-62841761D01*
X121264574Y-62841761D02*
X121359812Y-62651285D01*
X121359812Y-62651285D02*
X121359812Y-62460809D01*
X121359812Y-62460809D02*
X121264574Y-62270333D01*
X121264574Y-62270333D02*
X121169336Y-62175095D01*
X121169336Y-62175095D02*
X120978860Y-62079857D01*
X120978860Y-62079857D02*
X120597907Y-61984619D01*
X120597907Y-61984619D02*
X120407431Y-61889380D01*
X120407431Y-61889380D02*
X120312193Y-61794142D01*
X120312193Y-61794142D02*
X120216955Y-61603666D01*
X120216955Y-61603666D02*
X120216955Y-61413190D01*
X120216955Y-61413190D02*
X120312193Y-61222714D01*
X120312193Y-61222714D02*
X120407431Y-61127476D01*
X120407431Y-61127476D02*
X120597907Y-61032238D01*
X120597907Y-61032238D02*
X121074098Y-61032238D01*
X121074098Y-61032238D02*
X121359812Y-61127476D01*
X123359812Y-62841761D02*
X123264574Y-62937000D01*
X123264574Y-62937000D02*
X122978860Y-63032238D01*
X122978860Y-63032238D02*
X122788384Y-63032238D01*
X122788384Y-63032238D02*
X122502669Y-62937000D01*
X122502669Y-62937000D02*
X122312193Y-62746523D01*
X122312193Y-62746523D02*
X122216955Y-62556047D01*
X122216955Y-62556047D02*
X122121717Y-62175095D01*
X122121717Y-62175095D02*
X122121717Y-61889380D01*
X122121717Y-61889380D02*
X122216955Y-61508428D01*
X122216955Y-61508428D02*
X122312193Y-61317952D01*
X122312193Y-61317952D02*
X122502669Y-61127476D01*
X122502669Y-61127476D02*
X122788384Y-61032238D01*
X122788384Y-61032238D02*
X122978860Y-61032238D01*
X122978860Y-61032238D02*
X123264574Y-61127476D01*
X123264574Y-61127476D02*
X123359812Y-61222714D01*
X124597907Y-61032238D02*
X124978860Y-61032238D01*
X124978860Y-61032238D02*
X125169336Y-61127476D01*
X125169336Y-61127476D02*
X125359812Y-61317952D01*
X125359812Y-61317952D02*
X125455050Y-61698904D01*
X125455050Y-61698904D02*
X125455050Y-62365571D01*
X125455050Y-62365571D02*
X125359812Y-62746523D01*
X125359812Y-62746523D02*
X125169336Y-62937000D01*
X125169336Y-62937000D02*
X124978860Y-63032238D01*
X124978860Y-63032238D02*
X124597907Y-63032238D01*
X124597907Y-63032238D02*
X124407431Y-62937000D01*
X124407431Y-62937000D02*
X124216955Y-62746523D01*
X124216955Y-62746523D02*
X124121717Y-62365571D01*
X124121717Y-62365571D02*
X124121717Y-61698904D01*
X124121717Y-61698904D02*
X124216955Y-61317952D01*
X124216955Y-61317952D02*
X124407431Y-61127476D01*
X124407431Y-61127476D02*
X124597907Y-61032238D01*
X127455050Y-63032238D02*
X126788383Y-62079857D01*
X126312193Y-63032238D02*
X126312193Y-61032238D01*
X126312193Y-61032238D02*
X127074098Y-61032238D01*
X127074098Y-61032238D02*
X127264574Y-61127476D01*
X127264574Y-61127476D02*
X127359812Y-61222714D01*
X127359812Y-61222714D02*
X127455050Y-61413190D01*
X127455050Y-61413190D02*
X127455050Y-61698904D01*
X127455050Y-61698904D02*
X127359812Y-61889380D01*
X127359812Y-61889380D02*
X127264574Y-61984619D01*
X127264574Y-61984619D02*
X127074098Y-62079857D01*
X127074098Y-62079857D02*
X126312193Y-62079857D01*
X128312193Y-61984619D02*
X128978860Y-61984619D01*
X129264574Y-63032238D02*
X128312193Y-63032238D01*
X128312193Y-63032238D02*
X128312193Y-61032238D01*
X128312193Y-61032238D02*
X129264574Y-61032238D01*
D12*
%TO.C,J22*%
X149405000Y-94992289D02*
X149405000Y-92492289D01*
X156405000Y-94992289D02*
X156405000Y-92492289D01*
%TO.C,J16*%
X191528822Y-65131378D02*
X191528822Y-62631378D01*
X198528822Y-65131378D02*
X198528822Y-62631378D01*
%TO.C,13*%
X210027800Y-53965600D02*
X210027800Y-56465600D01*
X217027800Y-53965600D02*
X217027800Y-56465600D01*
%TO.C,J14*%
X149326500Y-65118189D02*
X149326500Y-62618189D01*
X156326500Y-65118189D02*
X156326500Y-62618189D01*
%TO.C,J24*%
X191607322Y-95005478D02*
X191607322Y-92505478D01*
X198607322Y-95005478D02*
X198607322Y-92505478D01*
%TO.C,J25*%
X210243600Y-95007102D02*
X210243600Y-92507102D01*
X217243600Y-95007102D02*
X217243600Y-92507102D01*
%TO.C,J15*%
X167907500Y-65109700D02*
X167907500Y-62609700D01*
X174907500Y-65109700D02*
X174907500Y-62609700D01*
%TO.C,J17*%
X210165100Y-65133002D02*
X210165100Y-62633002D01*
X217165100Y-65133002D02*
X217165100Y-62633002D01*
%TO.C,J19*%
X167903978Y-83826511D02*
X167903978Y-86326511D01*
X174903978Y-83826511D02*
X174903978Y-86326511D01*
%TO.C,J11*%
X167825478Y-53952411D02*
X167825478Y-56452411D01*
X174825478Y-53952411D02*
X174825478Y-56452411D01*
%TO.C,J20*%
X191564300Y-83839700D02*
X191564300Y-86339700D01*
X198564300Y-83839700D02*
X198564300Y-86339700D01*
%TO.C,J12*%
X191485800Y-53965600D02*
X191485800Y-56465600D01*
X198485800Y-53965600D02*
X198485800Y-56465600D01*
%TO.C,J18*%
X149361978Y-83826511D02*
X149361978Y-86326511D01*
X156361978Y-83826511D02*
X156361978Y-86326511D01*
%TO.C,J10*%
X149283478Y-53952411D02*
X149283478Y-56452411D01*
X156283478Y-53952411D02*
X156283478Y-56452411D01*
%TO.C,J23*%
X167986000Y-94983800D02*
X167986000Y-92483800D01*
X174986000Y-94983800D02*
X174986000Y-92483800D01*
%TO.C,J21*%
X210106300Y-83839700D02*
X210106300Y-86339700D01*
X217106300Y-83839700D02*
X217106300Y-86339700D01*
%TD*%
M02*
