%TF.GenerationSoftware,KiCad,Pcbnew,8.0.3*%
%TF.CreationDate,2024-06-16T14:02:55-05:00*%
%TF.ProjectId,EZ-VIK_panelized_panelized_panelized_panelized,455a2d56-494b-45f7-9061-6e656c697a65,rev?*%
%TF.SameCoordinates,Original*%
%TF.FileFunction,Copper,L1,Top*%
%TF.FilePolarity,Positive*%
%FSLAX46Y46*%
G04 Gerber Fmt 4.6, Leading zero omitted, Abs format (unit mm)*
G04 Created by KiCad (PCBNEW 8.0.3) date 2024-06-16 14:02:55*
%MOMM*%
%LPD*%
G01*
G04 APERTURE LIST*
%TA.AperFunction,ComponentPad*%
%ADD10R,1.680000X1.680000*%
%TD*%
%TA.AperFunction,SMDPad,CuDef*%
%ADD11C,1.000000*%
%TD*%
%TA.AperFunction,SMDPad,CuDef*%
%ADD12R,0.280000X1.250000*%
%TD*%
%TA.AperFunction,SMDPad,CuDef*%
%ADD13R,1.800000X2.000000*%
%TD*%
%TA.AperFunction,Conductor*%
%ADD14C,0.250000*%
%TD*%
G04 APERTURE END LIST*
D10*
%TO.P,J2,1,Pin_1*%
%TO.N,MOSI*%
X209928600Y-102722102D03*
%TO.P,J2,2,Pin_2*%
%TO.N,GP_AD1*%
X212478600Y-102722102D03*
%TO.P,J2,3,Pin_3*%
%TO.N,+5V*%
X215013600Y-102722102D03*
%TO.P,J2,4,Pin_4*%
%TO.N,RGB_DO*%
X217548600Y-102722102D03*
%TD*%
%TO.P,J3,1,Pin_1*%
%TO.N,+3V3*%
X145163478Y-55391411D03*
%TO.P,J3,2,Pin_2*%
%TO.N,GND*%
X145163478Y-52841411D03*
%TO.P,J3,3,Pin_3*%
%TO.N,SDA*%
X145163478Y-50306411D03*
%TO.P,J3,4,Pin_4*%
%TO.N,SCL*%
X145163478Y-47771411D03*
%TD*%
D11*
%TO.P,,*%
%TO.N,*%
X220980000Y-106680000D03*
%TD*%
D10*
%TO.P,J1,1,Pin_1*%
%TO.N,SCLK*%
X187487322Y-93576478D03*
%TO.P,J1,2,Pin_2*%
%TO.N,MISO*%
X187487322Y-96126478D03*
%TO.P,J1,3,Pin_3*%
%TO.N,SPI_CS*%
X187487322Y-98661478D03*
%TO.P,J1,4,Pin_4*%
%TO.N,GP_AD2*%
X187487322Y-101196478D03*
%TD*%
%TO.P,J2,1,Pin_1*%
%TO.N,MOSI*%
X175218978Y-76111511D03*
%TO.P,J2,2,Pin_2*%
%TO.N,GP_AD1*%
X172668978Y-76111511D03*
%TO.P,J2,3,Pin_3*%
%TO.N,+5V*%
X170133978Y-76111511D03*
%TO.P,J2,4,Pin_4*%
%TO.N,RGB_DO*%
X167598978Y-76111511D03*
%TD*%
%TO.P,J2,1,Pin_1*%
%TO.N,MOSI*%
X198800800Y-46250600D03*
%TO.P,J2,2,Pin_2*%
%TO.N,GP_AD1*%
X196250800Y-46250600D03*
%TO.P,J2,3,Pin_3*%
%TO.N,+5V*%
X193715800Y-46250600D03*
%TO.P,J2,4,Pin_4*%
%TO.N,RGB_DO*%
X191180800Y-46250600D03*
%TD*%
%TO.P,J3,1,Pin_1*%
%TO.N,+3V3*%
X179027500Y-63670700D03*
%TO.P,J3,2,Pin_2*%
%TO.N,GND*%
X179027500Y-66220700D03*
%TO.P,J3,3,Pin_3*%
%TO.N,SDA*%
X179027500Y-68755700D03*
%TO.P,J3,4,Pin_4*%
%TO.N,SCL*%
X179027500Y-71290700D03*
%TD*%
%TO.P,J2,1,Pin_1*%
%TO.N,MOSI*%
X149090000Y-102707289D03*
%TO.P,J2,2,Pin_2*%
%TO.N,GP_AD1*%
X151640000Y-102707289D03*
%TO.P,J2,3,Pin_3*%
%TO.N,+5V*%
X154175000Y-102707289D03*
%TO.P,J2,4,Pin_4*%
%TO.N,RGB_DO*%
X156710000Y-102707289D03*
%TD*%
%TO.P,J1,1,Pin_1*%
%TO.N,SCLK*%
X179023978Y-85255511D03*
%TO.P,J1,2,Pin_2*%
%TO.N,MISO*%
X179023978Y-82705511D03*
%TO.P,J1,3,Pin_3*%
%TO.N,SPI_CS*%
X179023978Y-80170511D03*
%TO.P,J1,4,Pin_4*%
%TO.N,GP_AD2*%
X179023978Y-77635511D03*
%TD*%
%TO.P,J2,1,Pin_1*%
%TO.N,MOSI*%
X217342800Y-46250600D03*
%TO.P,J2,2,Pin_2*%
%TO.N,GP_AD1*%
X214792800Y-46250600D03*
%TO.P,J2,3,Pin_3*%
%TO.N,+5V*%
X212257800Y-46250600D03*
%TO.P,J2,4,Pin_4*%
%TO.N,RGB_DO*%
X209722800Y-46250600D03*
%TD*%
%TO.P,J1,1,Pin_1*%
%TO.N,SCLK*%
X163787500Y-63680700D03*
%TO.P,J1,2,Pin_2*%
%TO.N,MISO*%
X163787500Y-66230700D03*
%TO.P,J1,3,Pin_3*%
%TO.N,SPI_CS*%
X163787500Y-68765700D03*
%TO.P,J1,4,Pin_4*%
%TO.N,GP_AD2*%
X163787500Y-71300700D03*
%TD*%
%TO.P,J1,1,Pin_1*%
%TO.N,SCLK*%
X202605800Y-55394600D03*
%TO.P,J1,2,Pin_2*%
%TO.N,MISO*%
X202605800Y-52844600D03*
%TO.P,J1,3,Pin_3*%
%TO.N,SPI_CS*%
X202605800Y-50309600D03*
%TO.P,J1,4,Pin_4*%
%TO.N,GP_AD2*%
X202605800Y-47774600D03*
%TD*%
D12*
%TO.P,J22,1,3V3*%
%TO.N,+3V3*%
X155655000Y-99030289D03*
%TO.P,J22,2,GND*%
%TO.N,GND*%
X155155000Y-99030289D03*
%TO.P,J22,3,SDA*%
%TO.N,SDA*%
X154655000Y-99030289D03*
%TO.P,J22,4,SCL*%
%TO.N,SCL*%
X154155000Y-99030289D03*
%TO.P,J22,5,RGB_DO*%
%TO.N,RGB_DO*%
X153655000Y-99030289D03*
%TO.P,J22,6,5V*%
%TO.N,+5V*%
X153155000Y-99030289D03*
%TO.P,J22,7,GP_AD1*%
%TO.N,GP_AD1*%
X152655000Y-99030289D03*
%TO.P,J22,8,MOSI*%
%TO.N,MOSI*%
X152155000Y-99030289D03*
%TO.P,J22,9,GP_AD2*%
%TO.N,GP_AD2*%
X151655000Y-99030289D03*
%TO.P,J22,10,SPI_CS*%
%TO.N,SPI_CS*%
X151155000Y-99030289D03*
%TO.P,J22,11,MISO*%
%TO.N,MISO*%
X150655000Y-99030289D03*
%TO.P,J22,12,SCLK*%
%TO.N,SCLK*%
X150155000Y-99030289D03*
D13*
%TO.P,J22,13*%
%TO.N,N/C*%
X148355000Y-96306289D03*
%TO.P,J22,14*%
X157455000Y-96306289D03*
%TD*%
D10*
%TO.P,J3,1,Pin_1*%
%TO.N,+3V3*%
X179106000Y-93544800D03*
%TO.P,J3,2,Pin_2*%
%TO.N,GND*%
X179106000Y-96094800D03*
%TO.P,J3,3,Pin_3*%
%TO.N,SDA*%
X179106000Y-98629800D03*
%TO.P,J3,4,Pin_4*%
%TO.N,SCL*%
X179106000Y-101164800D03*
%TD*%
%TO.P,J3,1,Pin_1*%
%TO.N,+3V3*%
X163705478Y-55391411D03*
%TO.P,J3,2,Pin_2*%
%TO.N,GND*%
X163705478Y-52841411D03*
%TO.P,J3,3,Pin_3*%
%TO.N,SDA*%
X163705478Y-50306411D03*
%TO.P,J3,4,Pin_4*%
%TO.N,SCL*%
X163705478Y-47771411D03*
%TD*%
D12*
%TO.P,J16,1,3V3*%
%TO.N,+3V3*%
X197778822Y-69169378D03*
%TO.P,J16,2,GND*%
%TO.N,GND*%
X197278822Y-69169378D03*
%TO.P,J16,3,SDA*%
%TO.N,SDA*%
X196778822Y-69169378D03*
%TO.P,J16,4,SCL*%
%TO.N,SCL*%
X196278822Y-69169378D03*
%TO.P,J16,5,RGB_DO*%
%TO.N,RGB_DO*%
X195778822Y-69169378D03*
%TO.P,J16,6,5V*%
%TO.N,+5V*%
X195278822Y-69169378D03*
%TO.P,J16,7,GP_AD1*%
%TO.N,GP_AD1*%
X194778822Y-69169378D03*
%TO.P,J16,8,MOSI*%
%TO.N,MOSI*%
X194278822Y-69169378D03*
%TO.P,J16,9,GP_AD2*%
%TO.N,GP_AD2*%
X193778822Y-69169378D03*
%TO.P,J16,10,SPI_CS*%
%TO.N,SPI_CS*%
X193278822Y-69169378D03*
%TO.P,J16,11,MISO*%
%TO.N,MISO*%
X192778822Y-69169378D03*
%TO.P,J16,12,SCLK*%
%TO.N,SCLK*%
X192278822Y-69169378D03*
D13*
%TO.P,J16,13*%
%TO.N,N/C*%
X190478822Y-66445378D03*
%TO.P,J16,14*%
X199578822Y-66445378D03*
%TD*%
D10*
%TO.P,J1,1,Pin_1*%
%TO.N,SCLK*%
X202684300Y-85268700D03*
%TO.P,J1,2,Pin_2*%
%TO.N,MISO*%
X202684300Y-82718700D03*
%TO.P,J1,3,Pin_3*%
%TO.N,SPI_CS*%
X202684300Y-80183700D03*
%TO.P,J1,4,Pin_4*%
%TO.N,GP_AD2*%
X202684300Y-77648700D03*
%TD*%
D12*
%TO.P,13,1,3V3*%
%TO.N,+3V3*%
X210777800Y-49927600D03*
%TO.P,13,2,GND*%
%TO.N,GND*%
X211277800Y-49927600D03*
%TO.P,13,3,SDA*%
%TO.N,SDA*%
X211777800Y-49927600D03*
%TO.P,13,4,SCL*%
%TO.N,SCL*%
X212277800Y-49927600D03*
%TO.P,13,5,RGB_DO*%
%TO.N,RGB_DO*%
X212777800Y-49927600D03*
%TO.P,13,6,5V*%
%TO.N,+5V*%
X213277800Y-49927600D03*
%TO.P,13,7,GP_AD1*%
%TO.N,GP_AD1*%
X213777800Y-49927600D03*
%TO.P,13,8,MOSI*%
%TO.N,MOSI*%
X214277800Y-49927600D03*
%TO.P,13,9,GP_AD2*%
%TO.N,GP_AD2*%
X214777800Y-49927600D03*
%TO.P,13,10,SPI_CS*%
%TO.N,SPI_CS*%
X215277800Y-49927600D03*
%TO.P,13,11,MISO*%
%TO.N,MISO*%
X215777800Y-49927600D03*
%TO.P,13,12,SCLK*%
%TO.N,SCLK*%
X216277800Y-49927600D03*
D13*
%TO.P,13,13*%
%TO.N,N/C*%
X218077800Y-52651600D03*
%TO.P,13,14*%
X208977800Y-52651600D03*
%TD*%
D10*
%TO.P,J2,1,Pin_1*%
%TO.N,MOSI*%
X156598478Y-46237411D03*
%TO.P,J2,2,Pin_2*%
%TO.N,GP_AD1*%
X154048478Y-46237411D03*
%TO.P,J2,3,Pin_3*%
%TO.N,+5V*%
X151513478Y-46237411D03*
%TO.P,J2,4,Pin_4*%
%TO.N,RGB_DO*%
X148978478Y-46237411D03*
%TD*%
D12*
%TO.P,J14,1,3V3*%
%TO.N,+3V3*%
X155576500Y-69156189D03*
%TO.P,J14,2,GND*%
%TO.N,GND*%
X155076500Y-69156189D03*
%TO.P,J14,3,SDA*%
%TO.N,SDA*%
X154576500Y-69156189D03*
%TO.P,J14,4,SCL*%
%TO.N,SCL*%
X154076500Y-69156189D03*
%TO.P,J14,5,RGB_DO*%
%TO.N,RGB_DO*%
X153576500Y-69156189D03*
%TO.P,J14,6,5V*%
%TO.N,+5V*%
X153076500Y-69156189D03*
%TO.P,J14,7,GP_AD1*%
%TO.N,GP_AD1*%
X152576500Y-69156189D03*
%TO.P,J14,8,MOSI*%
%TO.N,MOSI*%
X152076500Y-69156189D03*
%TO.P,J14,9,GP_AD2*%
%TO.N,GP_AD2*%
X151576500Y-69156189D03*
%TO.P,J14,10,SPI_CS*%
%TO.N,SPI_CS*%
X151076500Y-69156189D03*
%TO.P,J14,11,MISO*%
%TO.N,MISO*%
X150576500Y-69156189D03*
%TO.P,J14,12,SCLK*%
%TO.N,SCLK*%
X150076500Y-69156189D03*
D13*
%TO.P,J14,13*%
%TO.N,N/C*%
X148276500Y-66432189D03*
%TO.P,J14,14*%
X157376500Y-66432189D03*
%TD*%
D10*
%TO.P,J3,1,Pin_1*%
%TO.N,+3V3*%
X205907800Y-55404600D03*
%TO.P,J3,2,Pin_2*%
%TO.N,GND*%
X205907800Y-52854600D03*
%TO.P,J3,3,Pin_3*%
%TO.N,SDA*%
X205907800Y-50319600D03*
%TO.P,J3,4,Pin_4*%
%TO.N,SCL*%
X205907800Y-47784600D03*
%TD*%
%TO.P,J2,1,Pin_1*%
%TO.N,MOSI*%
X167671000Y-102698800D03*
%TO.P,J2,2,Pin_2*%
%TO.N,GP_AD1*%
X170221000Y-102698800D03*
%TO.P,J2,3,Pin_3*%
%TO.N,+5V*%
X172756000Y-102698800D03*
%TO.P,J2,4,Pin_4*%
%TO.N,RGB_DO*%
X175291000Y-102698800D03*
%TD*%
%TO.P,J3,1,Pin_1*%
%TO.N,+3V3*%
X202727322Y-93566478D03*
%TO.P,J3,2,Pin_2*%
%TO.N,GND*%
X202727322Y-96116478D03*
%TO.P,J3,3,Pin_3*%
%TO.N,SDA*%
X202727322Y-98651478D03*
%TO.P,J3,4,Pin_4*%
%TO.N,SCL*%
X202727322Y-101186478D03*
%TD*%
%TO.P,J3,1,Pin_1*%
%TO.N,+3V3*%
X160525000Y-93553289D03*
%TO.P,J3,2,Pin_2*%
%TO.N,GND*%
X160525000Y-96103289D03*
%TO.P,J3,3,Pin_3*%
%TO.N,SDA*%
X160525000Y-98638289D03*
%TO.P,J3,4,Pin_4*%
%TO.N,SCL*%
X160525000Y-101173289D03*
%TD*%
%TO.P,J3,1,Pin_1*%
%TO.N,+3V3*%
X187444300Y-85278700D03*
%TO.P,J3,2,Pin_2*%
%TO.N,GND*%
X187444300Y-82728700D03*
%TO.P,J3,3,Pin_3*%
%TO.N,SDA*%
X187444300Y-80193700D03*
%TO.P,J3,4,Pin_4*%
%TO.N,SCL*%
X187444300Y-77658700D03*
%TD*%
%TO.P,J2,1,Pin_1*%
%TO.N,MOSI*%
X209850100Y-72848002D03*
%TO.P,J2,2,Pin_2*%
%TO.N,GP_AD1*%
X212400100Y-72848002D03*
%TO.P,J2,3,Pin_3*%
%TO.N,+5V*%
X214935100Y-72848002D03*
%TO.P,J2,4,Pin_4*%
%TO.N,RGB_DO*%
X217470100Y-72848002D03*
%TD*%
D11*
%TO.P,,*%
%TO.N,*%
X146304000Y-42164000D03*
%TD*%
D10*
%TO.P,J3,1,Pin_1*%
%TO.N,+3V3*%
X163783978Y-85265511D03*
%TO.P,J3,2,Pin_2*%
%TO.N,GND*%
X163783978Y-82715511D03*
%TO.P,J3,3,Pin_3*%
%TO.N,SDA*%
X163783978Y-80180511D03*
%TO.P,J3,4,Pin_4*%
%TO.N,SCL*%
X163783978Y-77645511D03*
%TD*%
D11*
%TO.P,,*%
%TO.N,*%
X146812000Y-106680000D03*
%TD*%
D12*
%TO.P,J24,1,3V3*%
%TO.N,+3V3*%
X197857322Y-99043478D03*
%TO.P,J24,2,GND*%
%TO.N,GND*%
X197357322Y-99043478D03*
%TO.P,J24,3,SDA*%
%TO.N,SDA*%
X196857322Y-99043478D03*
%TO.P,J24,4,SCL*%
%TO.N,SCL*%
X196357322Y-99043478D03*
%TO.P,J24,5,RGB_DO*%
%TO.N,RGB_DO*%
X195857322Y-99043478D03*
%TO.P,J24,6,5V*%
%TO.N,+5V*%
X195357322Y-99043478D03*
%TO.P,J24,7,GP_AD1*%
%TO.N,GP_AD1*%
X194857322Y-99043478D03*
%TO.P,J24,8,MOSI*%
%TO.N,MOSI*%
X194357322Y-99043478D03*
%TO.P,J24,9,GP_AD2*%
%TO.N,GP_AD2*%
X193857322Y-99043478D03*
%TO.P,J24,10,SPI_CS*%
%TO.N,SPI_CS*%
X193357322Y-99043478D03*
%TO.P,J24,11,MISO*%
%TO.N,MISO*%
X192857322Y-99043478D03*
%TO.P,J24,12,SCLK*%
%TO.N,SCLK*%
X192357322Y-99043478D03*
D13*
%TO.P,J24,13*%
%TO.N,N/C*%
X190557322Y-96319478D03*
%TO.P,J24,14*%
X199657322Y-96319478D03*
%TD*%
D10*
%TO.P,J3,1,Pin_1*%
%TO.N,+3V3*%
X221363600Y-93568102D03*
%TO.P,J3,2,Pin_2*%
%TO.N,GND*%
X221363600Y-96118102D03*
%TO.P,J3,3,Pin_3*%
%TO.N,SDA*%
X221363600Y-98653102D03*
%TO.P,J3,4,Pin_4*%
%TO.N,SCL*%
X221363600Y-101188102D03*
%TD*%
%TO.P,J2,1,Pin_1*%
%TO.N,MOSI*%
X156676978Y-76111511D03*
%TO.P,J2,2,Pin_2*%
%TO.N,GP_AD1*%
X154126978Y-76111511D03*
%TO.P,J2,3,Pin_3*%
%TO.N,+5V*%
X151591978Y-76111511D03*
%TO.P,J2,4,Pin_4*%
%TO.N,RGB_DO*%
X149056978Y-76111511D03*
%TD*%
%TO.P,J3,1,Pin_1*%
%TO.N,+3V3*%
X145241978Y-85265511D03*
%TO.P,J3,2,Pin_2*%
%TO.N,GND*%
X145241978Y-82715511D03*
%TO.P,J3,3,Pin_3*%
%TO.N,SDA*%
X145241978Y-80180511D03*
%TO.P,J3,4,Pin_4*%
%TO.N,SCL*%
X145241978Y-77645511D03*
%TD*%
D12*
%TO.P,J25,1,3V3*%
%TO.N,+3V3*%
X216493600Y-99045102D03*
%TO.P,J25,2,GND*%
%TO.N,GND*%
X215993600Y-99045102D03*
%TO.P,J25,3,SDA*%
%TO.N,SDA*%
X215493600Y-99045102D03*
%TO.P,J25,4,SCL*%
%TO.N,SCL*%
X214993600Y-99045102D03*
%TO.P,J25,5,RGB_DO*%
%TO.N,RGB_DO*%
X214493600Y-99045102D03*
%TO.P,J25,6,5V*%
%TO.N,+5V*%
X213993600Y-99045102D03*
%TO.P,J25,7,GP_AD1*%
%TO.N,GP_AD1*%
X213493600Y-99045102D03*
%TO.P,J25,8,MOSI*%
%TO.N,MOSI*%
X212993600Y-99045102D03*
%TO.P,J25,9,GP_AD2*%
%TO.N,GP_AD2*%
X212493600Y-99045102D03*
%TO.P,J25,10,SPI_CS*%
%TO.N,SPI_CS*%
X211993600Y-99045102D03*
%TO.P,J25,11,MISO*%
%TO.N,MISO*%
X211493600Y-99045102D03*
%TO.P,J25,12,SCLK*%
%TO.N,SCLK*%
X210993600Y-99045102D03*
D13*
%TO.P,J25,13*%
%TO.N,N/C*%
X209193600Y-96321102D03*
%TO.P,J25,14*%
X218293600Y-96321102D03*
%TD*%
D10*
%TO.P,J1,1,Pin_1*%
%TO.N,SCLK*%
X145206500Y-63689189D03*
%TO.P,J1,2,Pin_2*%
%TO.N,MISO*%
X145206500Y-66239189D03*
%TO.P,J1,3,Pin_3*%
%TO.N,SPI_CS*%
X145206500Y-68774189D03*
%TO.P,J1,4,Pin_4*%
%TO.N,GP_AD2*%
X145206500Y-71309189D03*
%TD*%
%TO.P,J3,1,Pin_1*%
%TO.N,+3V3*%
X221285100Y-63694002D03*
%TO.P,J3,2,Pin_2*%
%TO.N,GND*%
X221285100Y-66244002D03*
%TO.P,J3,3,Pin_3*%
%TO.N,SDA*%
X221285100Y-68779002D03*
%TO.P,J3,4,Pin_4*%
%TO.N,SCL*%
X221285100Y-71314002D03*
%TD*%
%TO.P,J1,1,Pin_1*%
%TO.N,SCLK*%
X160403478Y-55381411D03*
%TO.P,J1,2,Pin_2*%
%TO.N,MISO*%
X160403478Y-52831411D03*
%TO.P,J1,3,Pin_3*%
%TO.N,SPI_CS*%
X160403478Y-50296411D03*
%TO.P,J1,4,Pin_4*%
%TO.N,GP_AD2*%
X160403478Y-47761411D03*
%TD*%
%TO.P,J2,1,Pin_1*%
%TO.N,MOSI*%
X191292322Y-102720478D03*
%TO.P,J2,2,Pin_2*%
%TO.N,GP_AD1*%
X193842322Y-102720478D03*
%TO.P,J2,3,Pin_3*%
%TO.N,+5V*%
X196377322Y-102720478D03*
%TO.P,J2,4,Pin_4*%
%TO.N,RGB_DO*%
X198912322Y-102720478D03*
%TD*%
D12*
%TO.P,J15,1,3V3*%
%TO.N,+3V3*%
X174157500Y-69147700D03*
%TO.P,J15,2,GND*%
%TO.N,GND*%
X173657500Y-69147700D03*
%TO.P,J15,3,SDA*%
%TO.N,SDA*%
X173157500Y-69147700D03*
%TO.P,J15,4,SCL*%
%TO.N,SCL*%
X172657500Y-69147700D03*
%TO.P,J15,5,RGB_DO*%
%TO.N,RGB_DO*%
X172157500Y-69147700D03*
%TO.P,J15,6,5V*%
%TO.N,+5V*%
X171657500Y-69147700D03*
%TO.P,J15,7,GP_AD1*%
%TO.N,GP_AD1*%
X171157500Y-69147700D03*
%TO.P,J15,8,MOSI*%
%TO.N,MOSI*%
X170657500Y-69147700D03*
%TO.P,J15,9,GP_AD2*%
%TO.N,GP_AD2*%
X170157500Y-69147700D03*
%TO.P,J15,10,SPI_CS*%
%TO.N,SPI_CS*%
X169657500Y-69147700D03*
%TO.P,J15,11,MISO*%
%TO.N,MISO*%
X169157500Y-69147700D03*
%TO.P,J15,12,SCLK*%
%TO.N,SCLK*%
X168657500Y-69147700D03*
D13*
%TO.P,J15,13*%
%TO.N,N/C*%
X166857500Y-66423700D03*
%TO.P,J15,14*%
X175957500Y-66423700D03*
%TD*%
D10*
%TO.P,J3,1,Pin_1*%
%TO.N,+3V3*%
X160446500Y-63679189D03*
%TO.P,J3,2,Pin_2*%
%TO.N,GND*%
X160446500Y-66229189D03*
%TO.P,J3,3,Pin_3*%
%TO.N,SDA*%
X160446500Y-68764189D03*
%TO.P,J3,4,Pin_4*%
%TO.N,SCL*%
X160446500Y-71299189D03*
%TD*%
%TO.P,J2,1,Pin_1*%
%TO.N,MOSI*%
X198879300Y-76124700D03*
%TO.P,J2,2,Pin_2*%
%TO.N,GP_AD1*%
X196329300Y-76124700D03*
%TO.P,J2,3,Pin_3*%
%TO.N,+5V*%
X193794300Y-76124700D03*
%TO.P,J2,4,Pin_4*%
%TO.N,RGB_DO*%
X191259300Y-76124700D03*
%TD*%
%TO.P,J1,1,Pin_1*%
%TO.N,SCLK*%
X206123600Y-93578102D03*
%TO.P,J1,2,Pin_2*%
%TO.N,MISO*%
X206123600Y-96128102D03*
%TO.P,J1,3,Pin_3*%
%TO.N,SPI_CS*%
X206123600Y-98663102D03*
%TO.P,J1,4,Pin_4*%
%TO.N,GP_AD2*%
X206123600Y-101198102D03*
%TD*%
%TO.P,J1,1,Pin_1*%
%TO.N,SCLK*%
X206045100Y-63704002D03*
%TO.P,J1,2,Pin_2*%
%TO.N,MISO*%
X206045100Y-66254002D03*
%TO.P,J1,3,Pin_3*%
%TO.N,SPI_CS*%
X206045100Y-68789002D03*
%TO.P,J1,4,Pin_4*%
%TO.N,GP_AD2*%
X206045100Y-71324002D03*
%TD*%
%TO.P,J3,1,Pin_1*%
%TO.N,+3V3*%
X187365800Y-55404600D03*
%TO.P,J3,2,Pin_2*%
%TO.N,GND*%
X187365800Y-52854600D03*
%TO.P,J3,3,Pin_3*%
%TO.N,SDA*%
X187365800Y-50319600D03*
%TO.P,J3,4,Pin_4*%
%TO.N,SCL*%
X187365800Y-47784600D03*
%TD*%
%TO.P,J3,1,Pin_1*%
%TO.N,+3V3*%
X202648822Y-63692378D03*
%TO.P,J3,2,Pin_2*%
%TO.N,GND*%
X202648822Y-66242378D03*
%TO.P,J3,3,Pin_3*%
%TO.N,SDA*%
X202648822Y-68777378D03*
%TO.P,J3,4,Pin_4*%
%TO.N,SCL*%
X202648822Y-71312378D03*
%TD*%
D12*
%TO.P,J17,1,3V3*%
%TO.N,+3V3*%
X216415100Y-69171002D03*
%TO.P,J17,2,GND*%
%TO.N,GND*%
X215915100Y-69171002D03*
%TO.P,J17,3,SDA*%
%TO.N,SDA*%
X215415100Y-69171002D03*
%TO.P,J17,4,SCL*%
%TO.N,SCL*%
X214915100Y-69171002D03*
%TO.P,J17,5,RGB_DO*%
%TO.N,RGB_DO*%
X214415100Y-69171002D03*
%TO.P,J17,6,5V*%
%TO.N,+5V*%
X213915100Y-69171002D03*
%TO.P,J17,7,GP_AD1*%
%TO.N,GP_AD1*%
X213415100Y-69171002D03*
%TO.P,J17,8,MOSI*%
%TO.N,MOSI*%
X212915100Y-69171002D03*
%TO.P,J17,9,GP_AD2*%
%TO.N,GP_AD2*%
X212415100Y-69171002D03*
%TO.P,J17,10,SPI_CS*%
%TO.N,SPI_CS*%
X211915100Y-69171002D03*
%TO.P,J17,11,MISO*%
%TO.N,MISO*%
X211415100Y-69171002D03*
%TO.P,J17,12,SCLK*%
%TO.N,SCLK*%
X210915100Y-69171002D03*
D13*
%TO.P,J17,13*%
%TO.N,N/C*%
X209115100Y-66447002D03*
%TO.P,J17,14*%
X218215100Y-66447002D03*
%TD*%
D12*
%TO.P,J19,1,3V3*%
%TO.N,+3V3*%
X168653978Y-79788511D03*
%TO.P,J19,2,GND*%
%TO.N,GND*%
X169153978Y-79788511D03*
%TO.P,J19,3,SDA*%
%TO.N,SDA*%
X169653978Y-79788511D03*
%TO.P,J19,4,SCL*%
%TO.N,SCL*%
X170153978Y-79788511D03*
%TO.P,J19,5,RGB_DO*%
%TO.N,RGB_DO*%
X170653978Y-79788511D03*
%TO.P,J19,6,5V*%
%TO.N,+5V*%
X171153978Y-79788511D03*
%TO.P,J19,7,GP_AD1*%
%TO.N,GP_AD1*%
X171653978Y-79788511D03*
%TO.P,J19,8,MOSI*%
%TO.N,MOSI*%
X172153978Y-79788511D03*
%TO.P,J19,9,GP_AD2*%
%TO.N,GP_AD2*%
X172653978Y-79788511D03*
%TO.P,J19,10,SPI_CS*%
%TO.N,SPI_CS*%
X173153978Y-79788511D03*
%TO.P,J19,11,MISO*%
%TO.N,MISO*%
X173653978Y-79788511D03*
%TO.P,J19,12,SCLK*%
%TO.N,SCLK*%
X174153978Y-79788511D03*
D13*
%TO.P,J19,13*%
%TO.N,N/C*%
X175953978Y-82512511D03*
%TO.P,J19,14*%
X166853978Y-82512511D03*
%TD*%
D10*
%TO.P,J2,1,Pin_1*%
%TO.N,MOSI*%
X167592500Y-72824700D03*
%TO.P,J2,2,Pin_2*%
%TO.N,GP_AD1*%
X170142500Y-72824700D03*
%TO.P,J2,3,Pin_3*%
%TO.N,+5V*%
X172677500Y-72824700D03*
%TO.P,J2,4,Pin_4*%
%TO.N,RGB_DO*%
X175212500Y-72824700D03*
%TD*%
%TO.P,J1,1,Pin_1*%
%TO.N,SCLK*%
X145285000Y-93563289D03*
%TO.P,J1,2,Pin_2*%
%TO.N,MISO*%
X145285000Y-96113289D03*
%TO.P,J1,3,Pin_3*%
%TO.N,SPI_CS*%
X145285000Y-98648289D03*
%TO.P,J1,4,Pin_4*%
%TO.N,GP_AD2*%
X145285000Y-101183289D03*
%TD*%
D12*
%TO.P,J11,1,3V3*%
%TO.N,+3V3*%
X168575478Y-49914411D03*
%TO.P,J11,2,GND*%
%TO.N,GND*%
X169075478Y-49914411D03*
%TO.P,J11,3,SDA*%
%TO.N,SDA*%
X169575478Y-49914411D03*
%TO.P,J11,4,SCL*%
%TO.N,SCL*%
X170075478Y-49914411D03*
%TO.P,J11,5,RGB_DO*%
%TO.N,RGB_DO*%
X170575478Y-49914411D03*
%TO.P,J11,6,5V*%
%TO.N,+5V*%
X171075478Y-49914411D03*
%TO.P,J11,7,GP_AD1*%
%TO.N,GP_AD1*%
X171575478Y-49914411D03*
%TO.P,J11,8,MOSI*%
%TO.N,MOSI*%
X172075478Y-49914411D03*
%TO.P,J11,9,GP_AD2*%
%TO.N,GP_AD2*%
X172575478Y-49914411D03*
%TO.P,J11,10,SPI_CS*%
%TO.N,SPI_CS*%
X173075478Y-49914411D03*
%TO.P,J11,11,MISO*%
%TO.N,MISO*%
X173575478Y-49914411D03*
%TO.P,J11,12,SCLK*%
%TO.N,SCLK*%
X174075478Y-49914411D03*
D13*
%TO.P,J11,13*%
%TO.N,N/C*%
X175875478Y-52638411D03*
%TO.P,J11,14*%
X166775478Y-52638411D03*
%TD*%
D10*
%TO.P,J2,1,Pin_1*%
%TO.N,MOSI*%
X175140478Y-46237411D03*
%TO.P,J2,2,Pin_2*%
%TO.N,GP_AD1*%
X172590478Y-46237411D03*
%TO.P,J2,3,Pin_3*%
%TO.N,+5V*%
X170055478Y-46237411D03*
%TO.P,J2,4,Pin_4*%
%TO.N,RGB_DO*%
X167520478Y-46237411D03*
%TD*%
D12*
%TO.P,J20,1,3V3*%
%TO.N,+3V3*%
X192314300Y-79801700D03*
%TO.P,J20,2,GND*%
%TO.N,GND*%
X192814300Y-79801700D03*
%TO.P,J20,3,SDA*%
%TO.N,SDA*%
X193314300Y-79801700D03*
%TO.P,J20,4,SCL*%
%TO.N,SCL*%
X193814300Y-79801700D03*
%TO.P,J20,5,RGB_DO*%
%TO.N,RGB_DO*%
X194314300Y-79801700D03*
%TO.P,J20,6,5V*%
%TO.N,+5V*%
X194814300Y-79801700D03*
%TO.P,J20,7,GP_AD1*%
%TO.N,GP_AD1*%
X195314300Y-79801700D03*
%TO.P,J20,8,MOSI*%
%TO.N,MOSI*%
X195814300Y-79801700D03*
%TO.P,J20,9,GP_AD2*%
%TO.N,GP_AD2*%
X196314300Y-79801700D03*
%TO.P,J20,10,SPI_CS*%
%TO.N,SPI_CS*%
X196814300Y-79801700D03*
%TO.P,J20,11,MISO*%
%TO.N,MISO*%
X197314300Y-79801700D03*
%TO.P,J20,12,SCLK*%
%TO.N,SCLK*%
X197814300Y-79801700D03*
D13*
%TO.P,J20,13*%
%TO.N,N/C*%
X199614300Y-82525700D03*
%TO.P,J20,14*%
X190514300Y-82525700D03*
%TD*%
D10*
%TO.P,J2,1,Pin_1*%
%TO.N,MOSI*%
X217421300Y-76124700D03*
%TO.P,J2,2,Pin_2*%
%TO.N,GP_AD1*%
X214871300Y-76124700D03*
%TO.P,J2,3,Pin_3*%
%TO.N,+5V*%
X212336300Y-76124700D03*
%TO.P,J2,4,Pin_4*%
%TO.N,RGB_DO*%
X209801300Y-76124700D03*
%TD*%
%TO.P,J1,1,Pin_1*%
%TO.N,SCLK*%
X178945478Y-55381411D03*
%TO.P,J1,2,Pin_2*%
%TO.N,MISO*%
X178945478Y-52831411D03*
%TO.P,J1,3,Pin_3*%
%TO.N,SPI_CS*%
X178945478Y-50296411D03*
%TO.P,J1,4,Pin_4*%
%TO.N,GP_AD2*%
X178945478Y-47761411D03*
%TD*%
%TO.P,J3,1,Pin_1*%
%TO.N,+3V3*%
X205986300Y-85278700D03*
%TO.P,J3,2,Pin_2*%
%TO.N,GND*%
X205986300Y-82728700D03*
%TO.P,J3,3,Pin_3*%
%TO.N,SDA*%
X205986300Y-80193700D03*
%TO.P,J3,4,Pin_4*%
%TO.N,SCL*%
X205986300Y-77658700D03*
%TD*%
D12*
%TO.P,J12,1,3V3*%
%TO.N,+3V3*%
X192235800Y-49927600D03*
%TO.P,J12,2,GND*%
%TO.N,GND*%
X192735800Y-49927600D03*
%TO.P,J12,3,SDA*%
%TO.N,SDA*%
X193235800Y-49927600D03*
%TO.P,J12,4,SCL*%
%TO.N,SCL*%
X193735800Y-49927600D03*
%TO.P,J12,5,RGB_DO*%
%TO.N,RGB_DO*%
X194235800Y-49927600D03*
%TO.P,J12,6,5V*%
%TO.N,+5V*%
X194735800Y-49927600D03*
%TO.P,J12,7,GP_AD1*%
%TO.N,GP_AD1*%
X195235800Y-49927600D03*
%TO.P,J12,8,MOSI*%
%TO.N,MOSI*%
X195735800Y-49927600D03*
%TO.P,J12,9,GP_AD2*%
%TO.N,GP_AD2*%
X196235800Y-49927600D03*
%TO.P,J12,10,SPI_CS*%
%TO.N,SPI_CS*%
X196735800Y-49927600D03*
%TO.P,J12,11,MISO*%
%TO.N,MISO*%
X197235800Y-49927600D03*
%TO.P,J12,12,SCLK*%
%TO.N,SCLK*%
X197735800Y-49927600D03*
D13*
%TO.P,J12,13*%
%TO.N,N/C*%
X199535800Y-52651600D03*
%TO.P,J12,14*%
X190435800Y-52651600D03*
%TD*%
D10*
%TO.P,J1,1,Pin_1*%
%TO.N,SCLK*%
X163866000Y-93554800D03*
%TO.P,J1,2,Pin_2*%
%TO.N,MISO*%
X163866000Y-96104800D03*
%TO.P,J1,3,Pin_3*%
%TO.N,SPI_CS*%
X163866000Y-98639800D03*
%TO.P,J1,4,Pin_4*%
%TO.N,GP_AD2*%
X163866000Y-101174800D03*
%TD*%
%TO.P,J1,1,Pin_1*%
%TO.N,SCLK*%
X160481978Y-85255511D03*
%TO.P,J1,2,Pin_2*%
%TO.N,MISO*%
X160481978Y-82705511D03*
%TO.P,J1,3,Pin_3*%
%TO.N,SPI_CS*%
X160481978Y-80170511D03*
%TO.P,J1,4,Pin_4*%
%TO.N,GP_AD2*%
X160481978Y-77635511D03*
%TD*%
%TO.P,J2,1,Pin_1*%
%TO.N,MOSI*%
X149011500Y-72833189D03*
%TO.P,J2,2,Pin_2*%
%TO.N,GP_AD1*%
X151561500Y-72833189D03*
%TO.P,J2,3,Pin_3*%
%TO.N,+5V*%
X154096500Y-72833189D03*
%TO.P,J2,4,Pin_4*%
%TO.N,RGB_DO*%
X156631500Y-72833189D03*
%TD*%
%TO.P,J2,1,Pin_1*%
%TO.N,MOSI*%
X191213822Y-72846378D03*
%TO.P,J2,2,Pin_2*%
%TO.N,GP_AD1*%
X193763822Y-72846378D03*
%TO.P,J2,3,Pin_3*%
%TO.N,+5V*%
X196298822Y-72846378D03*
%TO.P,J2,4,Pin_4*%
%TO.N,RGB_DO*%
X198833822Y-72846378D03*
%TD*%
D12*
%TO.P,J18,1,3V3*%
%TO.N,+3V3*%
X150111978Y-79788511D03*
%TO.P,J18,2,GND*%
%TO.N,GND*%
X150611978Y-79788511D03*
%TO.P,J18,3,SDA*%
%TO.N,SDA*%
X151111978Y-79788511D03*
%TO.P,J18,4,SCL*%
%TO.N,SCL*%
X151611978Y-79788511D03*
%TO.P,J18,5,RGB_DO*%
%TO.N,RGB_DO*%
X152111978Y-79788511D03*
%TO.P,J18,6,5V*%
%TO.N,+5V*%
X152611978Y-79788511D03*
%TO.P,J18,7,GP_AD1*%
%TO.N,GP_AD1*%
X153111978Y-79788511D03*
%TO.P,J18,8,MOSI*%
%TO.N,MOSI*%
X153611978Y-79788511D03*
%TO.P,J18,9,GP_AD2*%
%TO.N,GP_AD2*%
X154111978Y-79788511D03*
%TO.P,J18,10,SPI_CS*%
%TO.N,SPI_CS*%
X154611978Y-79788511D03*
%TO.P,J18,11,MISO*%
%TO.N,MISO*%
X155111978Y-79788511D03*
%TO.P,J18,12,SCLK*%
%TO.N,SCLK*%
X155611978Y-79788511D03*
D13*
%TO.P,J18,13*%
%TO.N,N/C*%
X157411978Y-82512511D03*
%TO.P,J18,14*%
X148311978Y-82512511D03*
%TD*%
D12*
%TO.P,J10,1,3V3*%
%TO.N,+3V3*%
X150033478Y-49914411D03*
%TO.P,J10,2,GND*%
%TO.N,GND*%
X150533478Y-49914411D03*
%TO.P,J10,3,SDA*%
%TO.N,SDA*%
X151033478Y-49914411D03*
%TO.P,J10,4,SCL*%
%TO.N,SCL*%
X151533478Y-49914411D03*
%TO.P,J10,5,RGB_DO*%
%TO.N,RGB_DO*%
X152033478Y-49914411D03*
%TO.P,J10,6,5V*%
%TO.N,+5V*%
X152533478Y-49914411D03*
%TO.P,J10,7,GP_AD1*%
%TO.N,GP_AD1*%
X153033478Y-49914411D03*
%TO.P,J10,8,MOSI*%
%TO.N,MOSI*%
X153533478Y-49914411D03*
%TO.P,J10,9,GP_AD2*%
%TO.N,GP_AD2*%
X154033478Y-49914411D03*
%TO.P,J10,10,SPI_CS*%
%TO.N,SPI_CS*%
X154533478Y-49914411D03*
%TO.P,J10,11,MISO*%
%TO.N,MISO*%
X155033478Y-49914411D03*
%TO.P,J10,12,SCLK*%
%TO.N,SCLK*%
X155533478Y-49914411D03*
D13*
%TO.P,J10,13*%
%TO.N,N/C*%
X157333478Y-52638411D03*
%TO.P,J10,14*%
X148233478Y-52638411D03*
%TD*%
D10*
%TO.P,J1,1,Pin_1*%
%TO.N,SCLK*%
X187408822Y-63702378D03*
%TO.P,J1,2,Pin_2*%
%TO.N,MISO*%
X187408822Y-66252378D03*
%TO.P,J1,3,Pin_3*%
%TO.N,SPI_CS*%
X187408822Y-68787378D03*
%TO.P,J1,4,Pin_4*%
%TO.N,GP_AD2*%
X187408822Y-71322378D03*
%TD*%
D12*
%TO.P,J23,1,3V3*%
%TO.N,+3V3*%
X174236000Y-99021800D03*
%TO.P,J23,2,GND*%
%TO.N,GND*%
X173736000Y-99021800D03*
%TO.P,J23,3,SDA*%
%TO.N,SDA*%
X173236000Y-99021800D03*
%TO.P,J23,4,SCL*%
%TO.N,SCL*%
X172736000Y-99021800D03*
%TO.P,J23,5,RGB_DO*%
%TO.N,RGB_DO*%
X172236000Y-99021800D03*
%TO.P,J23,6,5V*%
%TO.N,+5V*%
X171736000Y-99021800D03*
%TO.P,J23,7,GP_AD1*%
%TO.N,GP_AD1*%
X171236000Y-99021800D03*
%TO.P,J23,8,MOSI*%
%TO.N,MOSI*%
X170736000Y-99021800D03*
%TO.P,J23,9,GP_AD2*%
%TO.N,GP_AD2*%
X170236000Y-99021800D03*
%TO.P,J23,10,SPI_CS*%
%TO.N,SPI_CS*%
X169736000Y-99021800D03*
%TO.P,J23,11,MISO*%
%TO.N,MISO*%
X169236000Y-99021800D03*
%TO.P,J23,12,SCLK*%
%TO.N,SCLK*%
X168736000Y-99021800D03*
D13*
%TO.P,J23,13*%
%TO.N,N/C*%
X166936000Y-96297800D03*
%TO.P,J23,14*%
X176036000Y-96297800D03*
%TD*%
D10*
%TO.P,J1,1,Pin_1*%
%TO.N,SCLK*%
X221147800Y-55394600D03*
%TO.P,J1,2,Pin_2*%
%TO.N,MISO*%
X221147800Y-52844600D03*
%TO.P,J1,3,Pin_3*%
%TO.N,SPI_CS*%
X221147800Y-50309600D03*
%TO.P,J1,4,Pin_4*%
%TO.N,GP_AD2*%
X221147800Y-47774600D03*
%TD*%
D11*
%TO.P,,*%
%TO.N,*%
X220472000Y-42164000D03*
%TD*%
D10*
%TO.P,J1,1,Pin_1*%
%TO.N,SCLK*%
X221226300Y-85268700D03*
%TO.P,J1,2,Pin_2*%
%TO.N,MISO*%
X221226300Y-82718700D03*
%TO.P,J1,3,Pin_3*%
%TO.N,SPI_CS*%
X221226300Y-80183700D03*
%TO.P,J1,4,Pin_4*%
%TO.N,GP_AD2*%
X221226300Y-77648700D03*
%TD*%
D12*
%TO.P,J21,1,3V3*%
%TO.N,+3V3*%
X210856300Y-79801700D03*
%TO.P,J21,2,GND*%
%TO.N,GND*%
X211356300Y-79801700D03*
%TO.P,J21,3,SDA*%
%TO.N,SDA*%
X211856300Y-79801700D03*
%TO.P,J21,4,SCL*%
%TO.N,SCL*%
X212356300Y-79801700D03*
%TO.P,J21,5,RGB_DO*%
%TO.N,RGB_DO*%
X212856300Y-79801700D03*
%TO.P,J21,6,5V*%
%TO.N,+5V*%
X213356300Y-79801700D03*
%TO.P,J21,7,GP_AD1*%
%TO.N,GP_AD1*%
X213856300Y-79801700D03*
%TO.P,J21,8,MOSI*%
%TO.N,MOSI*%
X214356300Y-79801700D03*
%TO.P,J21,9,GP_AD2*%
%TO.N,GP_AD2*%
X214856300Y-79801700D03*
%TO.P,J21,10,SPI_CS*%
%TO.N,SPI_CS*%
X215356300Y-79801700D03*
%TO.P,J21,11,MISO*%
%TO.N,MISO*%
X215856300Y-79801700D03*
%TO.P,J21,12,SCLK*%
%TO.N,SCLK*%
X216356300Y-79801700D03*
D13*
%TO.P,J21,13*%
%TO.N,N/C*%
X218156300Y-82525700D03*
%TO.P,J21,14*%
X209056300Y-82525700D03*
%TD*%
D14*
%TO.N,SCLK*%
X166743000Y-93554800D02*
X163991114Y-93554800D01*
X148083500Y-63689189D02*
X145331614Y-63689189D01*
X216356300Y-79801700D02*
X216356300Y-83275700D01*
X168736000Y-99021800D02*
X168736000Y-95547800D01*
X192357322Y-99043478D02*
X192357322Y-95569478D01*
X216356300Y-83275700D02*
X218349300Y-85268700D01*
X197814300Y-79801700D02*
X197814300Y-83275700D01*
X168657500Y-65673700D02*
X166664500Y-63680700D01*
X216277800Y-53401600D02*
X218270800Y-55394600D01*
X192357322Y-95569478D02*
X190364322Y-93576478D01*
X157526478Y-55381411D02*
X160278364Y-55381411D01*
X155533478Y-53388411D02*
X157526478Y-55381411D01*
X218349300Y-85268700D02*
X221101186Y-85268700D01*
X148162000Y-93563289D02*
X145410114Y-93563289D01*
X192278822Y-69169378D02*
X192278822Y-65695378D01*
X150155000Y-95556289D02*
X148162000Y-93563289D01*
X216277800Y-49927600D02*
X216277800Y-53401600D01*
X150155000Y-99030289D02*
X150155000Y-95556289D01*
X150076500Y-69156189D02*
X150076500Y-65682189D01*
X192278822Y-65695378D02*
X190285822Y-63702378D01*
X176146978Y-85255511D02*
X178898864Y-85255511D01*
X210993600Y-95571102D02*
X209000600Y-93578102D01*
X174153978Y-79788511D02*
X174153978Y-83262511D01*
X155533478Y-49914411D02*
X155533478Y-53388411D01*
X176068478Y-55381411D02*
X178820364Y-55381411D01*
X218270800Y-55394600D02*
X221022686Y-55394600D01*
X174075478Y-53388411D02*
X176068478Y-55381411D01*
X197735800Y-53401600D02*
X199728800Y-55394600D01*
X190364322Y-93576478D02*
X187612436Y-93576478D01*
X199807300Y-85268700D02*
X202559186Y-85268700D01*
X168736000Y-95547800D02*
X166743000Y-93554800D01*
X190285822Y-63702378D02*
X187533936Y-63702378D01*
X210915100Y-65697002D02*
X208922100Y-63704002D01*
X209000600Y-93578102D02*
X206248714Y-93578102D01*
X174075478Y-49914411D02*
X174075478Y-53388411D01*
X155611978Y-79788511D02*
X155611978Y-83262511D01*
X174153978Y-83262511D02*
X176146978Y-85255511D01*
X166664500Y-63680700D02*
X163912614Y-63680700D01*
X157604978Y-85255511D02*
X160356864Y-85255511D01*
X197735800Y-49927600D02*
X197735800Y-53401600D01*
X168657500Y-69147700D02*
X168657500Y-65673700D01*
X208922100Y-63704002D02*
X206170214Y-63704002D01*
X155611978Y-83262511D02*
X157604978Y-85255511D01*
X197814300Y-83275700D02*
X199807300Y-85268700D01*
X199728800Y-55394600D02*
X202480686Y-55394600D01*
X210993600Y-99045102D02*
X210993600Y-95571102D01*
X210915100Y-69171002D02*
X210915100Y-65697002D01*
X150076500Y-65682189D02*
X148083500Y-63689189D01*
%TO.N,MISO*%
X156476478Y-48904411D02*
X160278085Y-52706018D01*
X150576500Y-69156189D02*
X150576500Y-70071189D01*
X192778822Y-70084378D02*
X192683822Y-70179378D01*
X197330800Y-48917600D02*
X198678800Y-48917600D01*
X215951300Y-78791700D02*
X217299300Y-78791700D01*
X215777800Y-49927600D02*
X215777800Y-49012600D01*
X150560000Y-100040289D02*
X149212000Y-100040289D01*
X155111978Y-79788511D02*
X155111978Y-78873511D01*
X211493600Y-99045102D02*
X211493600Y-99960102D01*
X169236000Y-99021800D02*
X169236000Y-99936800D01*
X150481500Y-70166189D02*
X149133500Y-70166189D01*
X178820085Y-52706018D02*
X178820098Y-52831424D01*
X155033478Y-49914411D02*
X155033478Y-48999411D01*
X175096978Y-78778511D02*
X178898585Y-82580118D01*
X202558907Y-82593307D02*
X202558920Y-82718713D01*
X202480407Y-52719207D02*
X202480420Y-52844613D01*
X211398600Y-100055102D02*
X210050600Y-100055102D01*
X192857322Y-99958478D02*
X192762322Y-100053478D01*
X169157500Y-70062700D02*
X169062500Y-70157700D01*
X187534215Y-66377771D02*
X187534202Y-66252365D01*
X192762322Y-100053478D02*
X191414322Y-100053478D01*
X197235800Y-49012600D02*
X197330800Y-48917600D01*
X197409300Y-78791700D02*
X198757300Y-78791700D01*
X221100907Y-82593307D02*
X221100920Y-82718713D01*
X173575478Y-49914411D02*
X173575478Y-48999411D01*
X215856300Y-79801700D02*
X215856300Y-78886700D01*
X155128478Y-48904411D02*
X156476478Y-48904411D01*
X206248993Y-96253495D02*
X206248980Y-96128089D01*
X155206978Y-78778511D02*
X156554978Y-78778511D01*
X145331893Y-66364582D02*
X145331880Y-66239176D01*
X156554978Y-78778511D02*
X160356585Y-82580118D01*
X191335822Y-70179378D02*
X187534215Y-66377771D01*
X173653978Y-79788511D02*
X173653978Y-78873511D01*
X178898585Y-82580118D02*
X178898598Y-82705524D01*
X150655000Y-99030289D02*
X150655000Y-99945289D01*
X155033478Y-48999411D02*
X155128478Y-48904411D01*
X149212000Y-100040289D02*
X145410393Y-96238682D01*
X145410393Y-96238682D02*
X145410380Y-96113276D01*
X209972100Y-70181002D02*
X206170493Y-66379395D01*
X175018478Y-48904411D02*
X178820085Y-52706018D01*
X150655000Y-99945289D02*
X150560000Y-100040289D01*
X163991393Y-96230193D02*
X163991380Y-96104787D01*
X211493600Y-99960102D02*
X211398600Y-100055102D01*
X215777800Y-49012600D02*
X215872800Y-48917600D01*
X173653978Y-78873511D02*
X173748978Y-78778511D01*
X169062500Y-70157700D02*
X167714500Y-70157700D01*
X198678800Y-48917600D02*
X202480407Y-52719207D01*
X197235800Y-49927600D02*
X197235800Y-49012600D01*
X163912893Y-66356093D02*
X163912880Y-66230687D01*
X155111978Y-78873511D02*
X155206978Y-78778511D01*
X150576500Y-70071189D02*
X150481500Y-70166189D01*
X169157500Y-69147700D02*
X169157500Y-70062700D01*
X169236000Y-99936800D02*
X169141000Y-100031800D01*
X160356585Y-82580118D02*
X160356598Y-82705524D01*
X217220800Y-48917600D02*
X221022407Y-52719207D01*
X167714500Y-70157700D02*
X163912893Y-66356093D01*
X173748978Y-78778511D02*
X175096978Y-78778511D01*
X192857322Y-99043478D02*
X192857322Y-99958478D01*
X210050600Y-100055102D02*
X206248993Y-96253495D01*
X211320100Y-70181002D02*
X209972100Y-70181002D01*
X217299300Y-78791700D02*
X221100907Y-82593307D01*
X192778822Y-69169378D02*
X192778822Y-70084378D01*
X211415100Y-69171002D02*
X211415100Y-70086002D01*
X192683822Y-70179378D02*
X191335822Y-70179378D01*
X169141000Y-100031800D02*
X167793000Y-100031800D01*
X215872800Y-48917600D02*
X217220800Y-48917600D01*
X197314300Y-78886700D02*
X197409300Y-78791700D01*
X211415100Y-70086002D02*
X211320100Y-70181002D01*
X198757300Y-78791700D02*
X202558907Y-82593307D01*
X160278085Y-52706018D02*
X160278098Y-52831424D01*
X206170493Y-66379395D02*
X206170480Y-66253989D01*
X173670478Y-48904411D02*
X175018478Y-48904411D01*
X197314300Y-79801700D02*
X197314300Y-78886700D01*
X215856300Y-78886700D02*
X215951300Y-78791700D01*
X221022407Y-52719207D02*
X221022420Y-52844613D01*
X191414322Y-100053478D02*
X187612715Y-96251871D01*
X173575478Y-48999411D02*
X173670478Y-48904411D01*
X187612715Y-96251871D02*
X187612702Y-96126465D01*
X167793000Y-100031800D02*
X163991393Y-96230193D01*
X149133500Y-70166189D02*
X145331893Y-66364582D01*
%TO.N,SPI_CS*%
X196735800Y-49927600D02*
X196735800Y-48876204D01*
X176977834Y-48454411D02*
X178819834Y-50296411D01*
X154611978Y-78737115D02*
X155020582Y-78328511D01*
X151076500Y-69156189D02*
X151076500Y-70207585D01*
X169657500Y-70199096D02*
X169248896Y-70607700D01*
X169736000Y-100073196D02*
X169327396Y-100481800D01*
X211915100Y-70222398D02*
X211506496Y-70631002D01*
X169736000Y-99021800D02*
X169736000Y-100073196D01*
X173075478Y-48863015D02*
X173484082Y-48454411D01*
X173075478Y-49914411D02*
X173075478Y-48863015D01*
X151076500Y-70207585D02*
X150667896Y-70616189D01*
X154611978Y-79788511D02*
X154611978Y-78737115D01*
X158435834Y-48454411D02*
X160277834Y-50296411D01*
X151155000Y-100081685D02*
X150746396Y-100490289D01*
X173562582Y-78328511D02*
X177056334Y-78328511D01*
X147252644Y-100490289D02*
X145410644Y-98648289D01*
X169657500Y-69147700D02*
X169657500Y-70199096D01*
X192948718Y-100503478D02*
X189454966Y-100503478D01*
X189454966Y-100503478D02*
X187612966Y-98661478D01*
X154942082Y-48454411D02*
X158435834Y-48454411D01*
X150667896Y-70616189D02*
X147174144Y-70616189D01*
X165755144Y-70607700D02*
X163913144Y-68765700D01*
X193357322Y-100094874D02*
X192948718Y-100503478D01*
X154533478Y-49914411D02*
X154533478Y-48863015D01*
X193357322Y-99043478D02*
X193357322Y-100094874D01*
X196735800Y-48876204D02*
X197144404Y-48467600D01*
X165833644Y-100481800D02*
X163991644Y-98639800D01*
X154533478Y-48863015D02*
X154942082Y-48454411D01*
X177056334Y-78328511D02*
X178898334Y-80170511D01*
X215686404Y-48467600D02*
X219180156Y-48467600D01*
X211993600Y-99045102D02*
X211993600Y-100096498D01*
X150746396Y-100490289D02*
X147252644Y-100490289D01*
X192870218Y-70629378D02*
X189376466Y-70629378D01*
X173484082Y-48454411D02*
X176977834Y-48454411D01*
X147174144Y-70616189D02*
X145332144Y-68774189D01*
X208091244Y-100505102D02*
X206249244Y-98663102D01*
X169327396Y-100481800D02*
X165833644Y-100481800D01*
X200638156Y-48467600D02*
X202480156Y-50309600D01*
X208012744Y-70631002D02*
X206170744Y-68789002D01*
X211506496Y-70631002D02*
X208012744Y-70631002D01*
X189376466Y-70629378D02*
X187534466Y-68787378D01*
X211993600Y-100096498D02*
X211584996Y-100505102D01*
X196814300Y-78750304D02*
X197222904Y-78341700D01*
X173153978Y-78737115D02*
X173562582Y-78328511D01*
X155020582Y-78328511D02*
X158514334Y-78328511D01*
X169248896Y-70607700D02*
X165755144Y-70607700D01*
X173153978Y-79788511D02*
X173153978Y-78737115D01*
X215356300Y-79801700D02*
X215356300Y-78750304D01*
X211915100Y-69171002D02*
X211915100Y-70222398D01*
X215764904Y-78341700D02*
X219258656Y-78341700D01*
X197144404Y-48467600D02*
X200638156Y-48467600D01*
X200716656Y-78341700D02*
X202558656Y-80183700D01*
X215356300Y-78750304D02*
X215764904Y-78341700D01*
X193278822Y-69169378D02*
X193278822Y-70220774D01*
X211584996Y-100505102D02*
X208091244Y-100505102D01*
X197222904Y-78341700D02*
X200716656Y-78341700D01*
X219258656Y-78341700D02*
X221100656Y-80183700D01*
X196814300Y-79801700D02*
X196814300Y-78750304D01*
X158514334Y-78328511D02*
X160356334Y-80170511D01*
X219180156Y-48467600D02*
X221022156Y-50309600D01*
X193278822Y-70220774D02*
X192870218Y-70629378D01*
X151155000Y-99030289D02*
X151155000Y-100081685D01*
X215277800Y-48876204D02*
X215686404Y-48467600D01*
X215277800Y-49927600D02*
X215277800Y-48876204D01*
%TO.N,GP_AD2*%
X178702478Y-48004411D02*
X178819583Y-47887306D01*
X193778822Y-70357170D02*
X193056614Y-71079378D01*
X173297686Y-48004411D02*
X178702478Y-48004411D01*
X178780978Y-77878511D02*
X178898083Y-77761406D01*
X220904800Y-48017600D02*
X221021905Y-47900495D01*
X164030500Y-71057700D02*
X163913395Y-71174805D01*
X154033478Y-49914411D02*
X154033478Y-48726619D01*
X202441300Y-77891700D02*
X202558405Y-77774595D01*
X178898083Y-77761406D02*
X178898070Y-77635524D01*
X170157500Y-70335492D02*
X169435292Y-71057700D01*
X212415100Y-69171002D02*
X212415100Y-70358794D01*
X145410895Y-101057394D02*
X145410908Y-101183276D01*
X154111978Y-79788511D02*
X154111978Y-78600719D01*
X169435292Y-71057700D02*
X164030500Y-71057700D01*
X170236000Y-100209592D02*
X169513792Y-100931800D01*
X197036508Y-77891700D02*
X202441300Y-77891700D01*
X145449500Y-71066189D02*
X145332395Y-71183294D01*
X150854292Y-71066189D02*
X145449500Y-71066189D01*
X160356083Y-77761406D02*
X160356070Y-77635524D01*
X215578508Y-77891700D02*
X220983300Y-77891700D01*
X151655000Y-100218081D02*
X150932792Y-100940289D01*
X215500008Y-48017600D02*
X220904800Y-48017600D01*
X196314300Y-79801700D02*
X196314300Y-78613908D01*
X145528000Y-100940289D02*
X145410895Y-101057394D01*
X160160478Y-48004411D02*
X160277583Y-47887306D01*
X164109000Y-100931800D02*
X163991895Y-101048905D01*
X206249495Y-101072207D02*
X206249508Y-101198089D01*
X211771392Y-100955102D02*
X206366600Y-100955102D01*
X196235800Y-48739808D02*
X196958008Y-48017600D01*
X178819583Y-47887306D02*
X178819570Y-47761424D01*
X202479905Y-47900495D02*
X202479892Y-47774613D01*
X172575478Y-49914411D02*
X172575478Y-48726619D01*
X196314300Y-78613908D02*
X197036508Y-77891700D01*
X172575478Y-48726619D02*
X173297686Y-48004411D01*
X202558405Y-77774595D02*
X202558392Y-77648713D01*
X221021905Y-47900495D02*
X221021892Y-47774613D01*
X154755686Y-48004411D02*
X160160478Y-48004411D01*
X163913395Y-71174805D02*
X163913408Y-71300687D01*
X214777800Y-48739808D02*
X215500008Y-48017600D01*
X196235800Y-49927600D02*
X196235800Y-48739808D01*
X151655000Y-99030289D02*
X151655000Y-100218081D01*
X154834186Y-77878511D02*
X160238978Y-77878511D01*
X206288100Y-71081002D02*
X206170995Y-71198107D01*
X212415100Y-70358794D02*
X211692892Y-71081002D01*
X173376186Y-77878511D02*
X178780978Y-77878511D01*
X160277583Y-47887306D02*
X160277570Y-47761424D01*
X193056614Y-71079378D02*
X187651822Y-71079378D01*
X172653978Y-79788511D02*
X172653978Y-78600719D01*
X172653978Y-78600719D02*
X173376186Y-77878511D01*
X202362800Y-48017600D02*
X202479905Y-47900495D01*
X206366600Y-100955102D02*
X206249495Y-101072207D01*
X151576500Y-70343981D02*
X150854292Y-71066189D01*
X220983300Y-77891700D02*
X221100405Y-77774595D01*
X187534717Y-71196483D02*
X187534730Y-71322365D01*
X214777800Y-49927600D02*
X214777800Y-48739808D01*
X193857322Y-100231270D02*
X193135114Y-100953478D01*
X212493600Y-100232894D02*
X211771392Y-100955102D01*
X211692892Y-71081002D02*
X206288100Y-71081002D01*
X145332395Y-71183294D02*
X145332408Y-71309176D01*
X170236000Y-99021800D02*
X170236000Y-100209592D01*
X214856300Y-79801700D02*
X214856300Y-78613908D01*
X154033478Y-48726619D02*
X154755686Y-48004411D01*
X163991895Y-101048905D02*
X163991908Y-101174787D01*
X150932792Y-100940289D02*
X145528000Y-100940289D01*
X193778822Y-69169378D02*
X193778822Y-70357170D01*
X221100405Y-77774595D02*
X221100392Y-77648713D01*
X169513792Y-100931800D02*
X164109000Y-100931800D01*
X187730322Y-100953478D02*
X187613217Y-101070583D01*
X151576500Y-69156189D02*
X151576500Y-70343981D01*
X206170995Y-71198107D02*
X206171008Y-71323989D01*
X187613217Y-101070583D02*
X187613230Y-101196465D01*
X160238978Y-77878511D02*
X160356083Y-77761406D01*
X170157500Y-69147700D02*
X170157500Y-70335492D01*
X193135114Y-100953478D02*
X187730322Y-100953478D01*
X154111978Y-78600719D02*
X154834186Y-77878511D01*
X212493600Y-99045102D02*
X212493600Y-100232894D01*
X187651822Y-71079378D02*
X187534717Y-71196483D01*
X214856300Y-78613908D02*
X215578508Y-77891700D01*
X193857322Y-99043478D02*
X193857322Y-100231270D01*
X196958008Y-48017600D02*
X202362800Y-48017600D01*
%TO.N,MOSI*%
X168709978Y-101533800D02*
X167671000Y-102572778D01*
X150888688Y-71668189D02*
X150050478Y-71668189D01*
X154721290Y-47402411D02*
X155559500Y-47402411D01*
X153611978Y-78464323D02*
X154799790Y-77276511D01*
X192331300Y-101555478D02*
X191292322Y-102594456D01*
X174101500Y-47402411D02*
X175140478Y-46363433D01*
X174180000Y-77276511D02*
X175218978Y-76237533D01*
X192252800Y-71681378D02*
X191213822Y-72720356D01*
X195735800Y-48603412D02*
X196923612Y-47415600D01*
X195814300Y-78477512D02*
X197002112Y-77289700D01*
X194278822Y-69169378D02*
X194278822Y-70493566D01*
X152155000Y-100354477D02*
X150967188Y-101542289D01*
X193091010Y-71681378D02*
X192252800Y-71681378D01*
X210889078Y-71683002D02*
X209850100Y-72721980D01*
X153533478Y-49914411D02*
X153533478Y-48590223D01*
X170657500Y-70471888D02*
X169469688Y-71659700D01*
X210967578Y-101557102D02*
X209928600Y-102596080D01*
X152155000Y-99030289D02*
X152155000Y-100354477D01*
X153533478Y-48590223D02*
X154721290Y-47402411D01*
X212915100Y-70495190D02*
X211727288Y-71683002D01*
X170736000Y-99021800D02*
X170736000Y-100345988D01*
X155559500Y-47402411D02*
X156598478Y-46363433D01*
X212993600Y-100369290D02*
X211805788Y-101557102D01*
X214356300Y-78477512D02*
X215544112Y-77289700D01*
X214356300Y-79801700D02*
X214356300Y-78477512D01*
X170736000Y-100345988D02*
X169548188Y-101533800D01*
X168631478Y-71659700D02*
X167592500Y-72698678D01*
X216382322Y-77289700D02*
X217421300Y-76250722D01*
X155638000Y-77276511D02*
X156676978Y-76237533D01*
X211727288Y-71683002D02*
X210889078Y-71683002D01*
X169548188Y-101533800D02*
X168709978Y-101533800D01*
X150967188Y-101542289D02*
X150128978Y-101542289D01*
X215465612Y-47415600D02*
X216303822Y-47415600D01*
X212915100Y-69171002D02*
X212915100Y-70495190D01*
X150128978Y-101542289D02*
X149090000Y-102581267D01*
X197002112Y-77289700D02*
X197840322Y-77289700D01*
X197761822Y-47415600D02*
X198800800Y-46376622D01*
X194357322Y-99043478D02*
X194357322Y-100367666D01*
X172075478Y-48590223D02*
X173263290Y-47402411D01*
X154799790Y-77276511D02*
X155638000Y-77276511D01*
X153611978Y-79788511D02*
X153611978Y-78464323D01*
X172153978Y-78464323D02*
X173341790Y-77276511D01*
X196923612Y-47415600D02*
X197761822Y-47415600D01*
X173263290Y-47402411D02*
X174101500Y-47402411D01*
X195735800Y-49927600D02*
X195735800Y-48603412D01*
X211805788Y-101557102D02*
X210967578Y-101557102D01*
X169469688Y-71659700D02*
X168631478Y-71659700D01*
X214277800Y-48603412D02*
X215465612Y-47415600D01*
X215544112Y-77289700D02*
X216382322Y-77289700D01*
X152076500Y-70480377D02*
X150888688Y-71668189D01*
X194278822Y-70493566D02*
X193091010Y-71681378D01*
X195814300Y-79801700D02*
X195814300Y-78477512D01*
X172153978Y-79788511D02*
X172153978Y-78464323D01*
X212993600Y-99045102D02*
X212993600Y-100369290D01*
X173341790Y-77276511D02*
X174180000Y-77276511D01*
X172075478Y-49914411D02*
X172075478Y-48590223D01*
X193169510Y-101555478D02*
X192331300Y-101555478D01*
X216303822Y-47415600D02*
X217342800Y-46376622D01*
X170657500Y-69147700D02*
X170657500Y-70471888D01*
X197840322Y-77289700D02*
X198879300Y-76250722D01*
X214277800Y-49927600D02*
X214277800Y-48603412D01*
X150050478Y-71668189D02*
X149011500Y-72707167D01*
X194357322Y-100367666D02*
X193169510Y-101555478D01*
X152076500Y-69156189D02*
X152076500Y-70480377D01*
%TO.N,GP_AD1*%
X152655000Y-101566267D02*
X151640000Y-102581267D01*
X213777800Y-47391622D02*
X214792800Y-46376622D01*
X194778822Y-71705356D02*
X193763822Y-72720356D01*
X195235800Y-49927600D02*
X195235800Y-47391622D01*
X152576500Y-69156189D02*
X152576500Y-71692167D01*
X171575478Y-47378433D02*
X172590478Y-46363433D01*
X213415100Y-69171002D02*
X213415100Y-71706980D01*
X171157500Y-71683678D02*
X170142500Y-72698678D01*
X171653978Y-79788511D02*
X171653978Y-77252533D01*
X153033478Y-49914411D02*
X153033478Y-47378433D01*
X195314300Y-77265722D02*
X196329300Y-76250722D01*
X171236000Y-99021800D02*
X171236000Y-101557778D01*
X171157500Y-69147700D02*
X171157500Y-71683678D01*
X213415100Y-71706980D02*
X212400100Y-72721980D01*
X194857322Y-101579456D02*
X193842322Y-102594456D01*
X152655000Y-99030289D02*
X152655000Y-101566267D01*
X195235800Y-47391622D02*
X196250800Y-46376622D01*
X213856300Y-79801700D02*
X213856300Y-77265722D01*
X213493600Y-101581080D02*
X212478600Y-102596080D01*
X194857322Y-99043478D02*
X194857322Y-101579456D01*
X171575478Y-49914411D02*
X171575478Y-47378433D01*
X194778822Y-69169378D02*
X194778822Y-71705356D01*
X213493600Y-99045102D02*
X213493600Y-101581080D01*
X153111978Y-77252533D02*
X154126978Y-76237533D01*
X213856300Y-77265722D02*
X214871300Y-76250722D01*
X171653978Y-77252533D02*
X172668978Y-76237533D01*
X153033478Y-47378433D02*
X154048478Y-46363433D01*
X152576500Y-71692167D02*
X151561500Y-72707167D01*
X213777800Y-49927600D02*
X213777800Y-47391622D01*
X153111978Y-79788511D02*
X153111978Y-77252533D01*
X195314300Y-79801700D02*
X195314300Y-77265722D01*
X171236000Y-101557778D02*
X170221000Y-102572778D01*
%TO.N,+5V*%
X213277800Y-49927600D02*
X213277800Y-47396622D01*
X194735800Y-49927600D02*
X194735800Y-47396622D01*
X195278822Y-71700356D02*
X196298822Y-72720356D01*
X153155000Y-99030289D02*
X153155000Y-101561267D01*
X195357322Y-99043478D02*
X195357322Y-101574456D01*
X152611978Y-79788511D02*
X152611978Y-77257533D01*
X171736000Y-101552778D02*
X172756000Y-102572778D01*
X171153978Y-77257533D02*
X170133978Y-76237533D01*
X171075478Y-49914411D02*
X171075478Y-47383433D01*
X213277800Y-47396622D02*
X212257800Y-46376622D01*
X194814300Y-77270722D02*
X193794300Y-76250722D01*
X213356300Y-77270722D02*
X212336300Y-76250722D01*
X153155000Y-101561267D02*
X154175000Y-102581267D01*
X194814300Y-79801700D02*
X194814300Y-77270722D01*
X153076500Y-71687167D02*
X154096500Y-72707167D01*
X153076500Y-69156189D02*
X153076500Y-71687167D01*
X171153978Y-79788511D02*
X171153978Y-77257533D01*
X171657500Y-71678678D02*
X172677500Y-72698678D01*
X213356300Y-79801700D02*
X213356300Y-77270722D01*
X171736000Y-99021800D02*
X171736000Y-101552778D01*
X195278822Y-69169378D02*
X195278822Y-71700356D01*
X152533478Y-49914411D02*
X152533478Y-47383433D01*
X171657500Y-69147700D02*
X171657500Y-71678678D01*
X213915100Y-71701980D02*
X214935100Y-72721980D01*
X213915100Y-69171002D02*
X213915100Y-71701980D01*
X171075478Y-47383433D02*
X170055478Y-46363433D01*
X152611978Y-77257533D02*
X151591978Y-76237533D01*
X194735800Y-47396622D02*
X193715800Y-46376622D01*
X213993600Y-101576080D02*
X215013600Y-102596080D01*
X213993600Y-99045102D02*
X213993600Y-101576080D01*
X152533478Y-47383433D02*
X151513478Y-46363433D01*
X195357322Y-101574456D02*
X196377322Y-102594456D01*
%TO.N,RGB_DO*%
X193047988Y-47415600D02*
X192219778Y-47415600D01*
X193126488Y-77289700D02*
X192298278Y-77289700D01*
X154764312Y-71668189D02*
X155592522Y-71668189D01*
X214415100Y-70495190D02*
X215602912Y-71683002D01*
X210761778Y-47415600D02*
X209722800Y-46376622D01*
X216509622Y-101557102D02*
X217548600Y-102596080D01*
X172236000Y-99021800D02*
X172236000Y-100345988D01*
X170653978Y-79788511D02*
X170653978Y-78464323D01*
X152033478Y-48590223D02*
X150845666Y-47402411D01*
X153576500Y-70480377D02*
X154764312Y-71668189D01*
X197873344Y-101555478D02*
X198912322Y-102594456D01*
X194314300Y-79801700D02*
X194314300Y-78477512D01*
X150017456Y-47402411D02*
X148978478Y-46363433D01*
X155671022Y-101542289D02*
X156710000Y-102581267D01*
X194314300Y-78477512D02*
X193126488Y-77289700D01*
X192298278Y-77289700D02*
X191259300Y-76250722D01*
X172157500Y-69147700D02*
X172157500Y-70471888D01*
X172157500Y-70471888D02*
X173345312Y-71659700D01*
X169466166Y-77276511D02*
X168637956Y-77276511D01*
X195778822Y-70493566D02*
X196966634Y-71681378D01*
X152111978Y-79788511D02*
X152111978Y-78464323D01*
X174252022Y-101533800D02*
X175291000Y-102572778D01*
X172236000Y-100345988D02*
X173423812Y-101533800D01*
X215602912Y-71683002D02*
X216431122Y-71683002D01*
X195778822Y-69169378D02*
X195778822Y-70493566D01*
X197045134Y-101555478D02*
X197873344Y-101555478D01*
X150845666Y-47402411D02*
X150017456Y-47402411D01*
X215681412Y-101557102D02*
X216509622Y-101557102D01*
X214493600Y-99045102D02*
X214493600Y-100369290D01*
X194235800Y-49927600D02*
X194235800Y-48603412D01*
X155592522Y-71668189D02*
X156631500Y-72707167D01*
X168637956Y-77276511D02*
X167598978Y-76237533D01*
X192219778Y-47415600D02*
X191180800Y-46376622D01*
X173423812Y-101533800D02*
X174252022Y-101533800D01*
X214493600Y-100369290D02*
X215681412Y-101557102D01*
X195857322Y-100367666D02*
X197045134Y-101555478D01*
X173345312Y-71659700D02*
X174173522Y-71659700D01*
X153655000Y-100354477D02*
X154842812Y-101542289D01*
X211589988Y-47415600D02*
X210761778Y-47415600D01*
X170575478Y-48590223D02*
X169387666Y-47402411D01*
X168559456Y-47402411D02*
X167520478Y-46363433D01*
X195857322Y-99043478D02*
X195857322Y-100367666D01*
X194235800Y-48603412D02*
X193047988Y-47415600D01*
X212856300Y-79801700D02*
X212856300Y-78477512D01*
X152033478Y-49914411D02*
X152033478Y-48590223D01*
X154842812Y-101542289D02*
X155671022Y-101542289D01*
X170575478Y-49914411D02*
X170575478Y-48590223D01*
X170653978Y-78464323D02*
X169466166Y-77276511D01*
X150924166Y-77276511D02*
X150095956Y-77276511D01*
X153576500Y-69156189D02*
X153576500Y-70480377D01*
X196966634Y-71681378D02*
X197794844Y-71681378D01*
X216431122Y-71683002D02*
X217470100Y-72721980D01*
X169387666Y-47402411D02*
X168559456Y-47402411D01*
X152111978Y-78464323D02*
X150924166Y-77276511D01*
X211668488Y-77289700D02*
X210840278Y-77289700D01*
X212777800Y-49927600D02*
X212777800Y-48603412D01*
X212856300Y-78477512D02*
X211668488Y-77289700D01*
X150095956Y-77276511D02*
X149056978Y-76237533D01*
X214415100Y-69171002D02*
X214415100Y-70495190D01*
X210840278Y-77289700D02*
X209801300Y-76250722D01*
X153655000Y-99030289D02*
X153655000Y-100354477D01*
X212777800Y-48603412D02*
X211589988Y-47415600D01*
X174173522Y-71659700D02*
X175212500Y-72698678D01*
X197794844Y-71681378D02*
X198833822Y-72720356D01*
%TO.N,+3V3*%
X190232800Y-55404600D02*
X187491822Y-55404600D01*
X148108978Y-85265511D02*
X145368000Y-85265511D01*
X176239000Y-93544800D02*
X178979978Y-93544800D01*
X155576500Y-69156189D02*
X155576500Y-65682189D01*
X168575478Y-49914411D02*
X168575478Y-53388411D01*
X150111978Y-79788511D02*
X150111978Y-83262511D01*
X155576500Y-65682189D02*
X157579500Y-63679189D01*
X216493600Y-99045102D02*
X216493600Y-95571102D01*
X199781822Y-63692378D02*
X202522800Y-63692378D01*
X197857322Y-95569478D02*
X199860322Y-93566478D01*
X168653978Y-83262511D02*
X166650978Y-85265511D01*
X174236000Y-99021800D02*
X174236000Y-95547800D01*
X157579500Y-63679189D02*
X160320478Y-63679189D01*
X148030478Y-55391411D02*
X145289500Y-55391411D01*
X155655000Y-95556289D02*
X157658000Y-93553289D01*
X174236000Y-95547800D02*
X176239000Y-93544800D01*
X168575478Y-53388411D02*
X166572478Y-55391411D01*
X174157500Y-65673700D02*
X176160500Y-63670700D01*
X210856300Y-79801700D02*
X210856300Y-83275700D01*
X166650978Y-85265511D02*
X163910000Y-85265511D01*
X168653978Y-79788511D02*
X168653978Y-83262511D01*
X210777800Y-53401600D02*
X208774800Y-55404600D01*
X157658000Y-93553289D02*
X160398978Y-93553289D01*
X210777800Y-49927600D02*
X210777800Y-53401600D01*
X190311300Y-85278700D02*
X187570322Y-85278700D01*
X192314300Y-83275700D02*
X190311300Y-85278700D01*
X210856300Y-83275700D02*
X208853300Y-85278700D01*
X155655000Y-99030289D02*
X155655000Y-95556289D01*
X218418100Y-63694002D02*
X221159078Y-63694002D01*
X197857322Y-99043478D02*
X197857322Y-95569478D01*
X150111978Y-83262511D02*
X148108978Y-85265511D01*
X216415100Y-69171002D02*
X216415100Y-65697002D01*
X192235800Y-53401600D02*
X190232800Y-55404600D01*
X208853300Y-85278700D02*
X206112322Y-85278700D01*
X208774800Y-55404600D02*
X206033822Y-55404600D01*
X176160500Y-63670700D02*
X178901478Y-63670700D01*
X197778822Y-69169378D02*
X197778822Y-65695378D01*
X192314300Y-79801700D02*
X192314300Y-83275700D01*
X199860322Y-93566478D02*
X202601300Y-93566478D01*
X216493600Y-95571102D02*
X218496600Y-93568102D01*
X218496600Y-93568102D02*
X221237578Y-93568102D01*
X174157500Y-69147700D02*
X174157500Y-65673700D01*
X216415100Y-65697002D02*
X218418100Y-63694002D01*
X166572478Y-55391411D02*
X163831500Y-55391411D01*
X197778822Y-65695378D02*
X199781822Y-63692378D01*
X150033478Y-49914411D02*
X150033478Y-53388411D01*
X192235800Y-49927600D02*
X192235800Y-53401600D01*
X150033478Y-53388411D02*
X148030478Y-55391411D01*
%TO.N,GND*%
X150533478Y-49914411D02*
X150533478Y-48999411D01*
X215993600Y-99960102D02*
X216114000Y-100080502D01*
X169153978Y-79788511D02*
X169153978Y-78873511D01*
X192693900Y-78766300D02*
X191201700Y-78766300D01*
X156689100Y-70191589D02*
X160320478Y-66560211D01*
X215915100Y-69171002D02*
X215915100Y-70086002D01*
X197357322Y-99958478D02*
X197477722Y-100078878D01*
X192735800Y-49927600D02*
X192735800Y-49012600D01*
X155196900Y-70191589D02*
X156689100Y-70191589D01*
X217606200Y-100080502D02*
X221237578Y-96449124D01*
X160398978Y-96434311D02*
X160398978Y-96103289D01*
X155076500Y-70071189D02*
X155196900Y-70191589D01*
X145289500Y-52510389D02*
X145289500Y-52841411D01*
X148999378Y-78753111D02*
X145368000Y-82384489D01*
X155155000Y-99030289D02*
X155155000Y-99945289D01*
X197477722Y-100078878D02*
X198969922Y-100078878D01*
X173736000Y-99021800D02*
X173736000Y-99936800D01*
X175348600Y-100057200D02*
X178979978Y-96425822D01*
X156767600Y-100065689D02*
X160398978Y-96434311D01*
X197278822Y-70084378D02*
X197399222Y-70204778D01*
X206033822Y-52523578D02*
X206033822Y-52854600D01*
X211277800Y-49012600D02*
X211157400Y-48892200D01*
X150611978Y-79788511D02*
X150611978Y-78873511D01*
X155076500Y-69156189D02*
X155076500Y-70071189D01*
X211235900Y-78766300D02*
X209743700Y-78766300D01*
X192735800Y-49012600D02*
X192615400Y-48892200D01*
X148920878Y-48879011D02*
X145289500Y-52510389D01*
X178979978Y-96425822D02*
X178979978Y-96094800D01*
X145368000Y-82384489D02*
X145368000Y-82715511D01*
X187491822Y-52523578D02*
X187491822Y-52854600D01*
X168955078Y-48879011D02*
X167462878Y-48879011D01*
X221159078Y-66575024D02*
X221159078Y-66244002D01*
X211356300Y-79801700D02*
X211356300Y-78886700D01*
X150611978Y-78873511D02*
X150491578Y-78753111D01*
X211277800Y-49927600D02*
X211277800Y-49012600D01*
X197357322Y-99043478D02*
X197357322Y-99958478D01*
X150491578Y-78753111D02*
X148999378Y-78753111D01*
X155275400Y-100065689D02*
X156767600Y-100065689D01*
X209743700Y-78766300D02*
X206112322Y-82397678D01*
X187570322Y-82397678D02*
X187570322Y-82728700D01*
X167462878Y-48879011D02*
X163831500Y-52510389D01*
X192814300Y-78886700D02*
X192693900Y-78766300D01*
X163831500Y-52510389D02*
X163831500Y-52841411D01*
X173736000Y-99936800D02*
X173856400Y-100057200D01*
X221237578Y-96449124D02*
X221237578Y-96118102D01*
X192814300Y-79801700D02*
X192814300Y-78886700D01*
X173657500Y-70062700D02*
X173777900Y-70183100D01*
X202522800Y-66573400D02*
X202522800Y-66242378D01*
X173777900Y-70183100D02*
X175270100Y-70183100D01*
X150533478Y-48999411D02*
X150413078Y-48879011D01*
X155155000Y-99945289D02*
X155275400Y-100065689D01*
X150413078Y-48879011D02*
X148920878Y-48879011D01*
X217527700Y-70206402D02*
X221159078Y-66575024D01*
X215993600Y-99045102D02*
X215993600Y-99960102D01*
X211157400Y-48892200D02*
X209665200Y-48892200D01*
X169075478Y-48999411D02*
X168955078Y-48879011D01*
X167541378Y-78753111D02*
X163910000Y-82384489D01*
X197399222Y-70204778D02*
X198891422Y-70204778D01*
X209665200Y-48892200D02*
X206033822Y-52523578D01*
X169033578Y-78753111D02*
X167541378Y-78753111D01*
X163910000Y-82384489D02*
X163910000Y-82715511D01*
X192615400Y-48892200D02*
X191123200Y-48892200D01*
X169075478Y-49914411D02*
X169075478Y-48999411D01*
X169153978Y-78873511D02*
X169033578Y-78753111D01*
X173856400Y-100057200D02*
X175348600Y-100057200D01*
X197278822Y-69169378D02*
X197278822Y-70084378D01*
X211356300Y-78886700D02*
X211235900Y-78766300D01*
X202601300Y-96447500D02*
X202601300Y-96116478D01*
X216114000Y-100080502D02*
X217606200Y-100080502D01*
X175270100Y-70183100D02*
X178901478Y-66551722D01*
X160320478Y-66560211D02*
X160320478Y-66229189D01*
X206112322Y-82397678D02*
X206112322Y-82728700D01*
X215915100Y-70086002D02*
X216035500Y-70206402D01*
X178901478Y-66551722D02*
X178901478Y-66220700D01*
X191123200Y-48892200D02*
X187491822Y-52523578D01*
X173657500Y-69147700D02*
X173657500Y-70062700D01*
X216035500Y-70206402D02*
X217527700Y-70206402D01*
X191201700Y-78766300D02*
X187570322Y-82397678D01*
X198969922Y-100078878D02*
X202601300Y-96447500D01*
X198891422Y-70204778D02*
X202522800Y-66573400D01*
%TO.N,SDA*%
X207996922Y-78309100D02*
X206112322Y-80193700D01*
X173236000Y-99021800D02*
X173236000Y-100073196D01*
X211777800Y-49927600D02*
X211777800Y-48876204D01*
X169212774Y-78295911D02*
X165794600Y-78295911D01*
X193314300Y-79801700D02*
X193314300Y-78750304D01*
X192794596Y-48435000D02*
X189376422Y-48435000D01*
X215493600Y-100096498D02*
X215934804Y-100537702D01*
X155017704Y-70648789D02*
X158435878Y-70648789D01*
X189376422Y-48435000D02*
X187491822Y-50319600D01*
X197298526Y-100536078D02*
X200716700Y-100536078D01*
X147174100Y-48421811D02*
X145289500Y-50306411D01*
X151033478Y-48863015D02*
X150592274Y-48421811D01*
X169134274Y-48421811D02*
X165716100Y-48421811D01*
X154576500Y-70207585D02*
X155017704Y-70648789D01*
X154655000Y-99030289D02*
X154655000Y-100081685D01*
X211415096Y-78309100D02*
X207996922Y-78309100D01*
X158435878Y-70648789D02*
X160320478Y-68764189D01*
X173236000Y-100073196D02*
X173677204Y-100514400D01*
X169653978Y-78737115D02*
X169212774Y-78295911D01*
X147252600Y-78295911D02*
X145368000Y-80180511D01*
X151033478Y-49914411D02*
X151033478Y-48863015D01*
X155096204Y-100522889D02*
X158514378Y-100522889D01*
X169575478Y-49914411D02*
X169575478Y-48863015D01*
X196857322Y-100094874D02*
X197298526Y-100536078D01*
X154655000Y-100081685D02*
X155096204Y-100522889D01*
X215493600Y-99045102D02*
X215493600Y-100096498D01*
X219352978Y-100537702D02*
X221237578Y-98653102D01*
X151111978Y-79788511D02*
X151111978Y-78737115D01*
X200638200Y-70661978D02*
X202522800Y-68777378D01*
X173157500Y-69147700D02*
X173157500Y-70199096D01*
X169575478Y-48863015D02*
X169134274Y-48421811D01*
X197220026Y-70661978D02*
X200638200Y-70661978D01*
X196778822Y-69169378D02*
X196778822Y-70220774D01*
X196778822Y-70220774D02*
X197220026Y-70661978D01*
X211856300Y-78750304D02*
X211415096Y-78309100D01*
X200716700Y-100536078D02*
X202601300Y-98651478D01*
X151111978Y-78737115D02*
X150670774Y-78295911D01*
X215415100Y-69171002D02*
X215415100Y-70222398D01*
X211777800Y-48876204D02*
X211336596Y-48435000D01*
X207918422Y-48435000D02*
X206033822Y-50319600D01*
X219274478Y-70663602D02*
X221159078Y-68779002D01*
X173598704Y-70640300D02*
X177016878Y-70640300D01*
X192873096Y-78309100D02*
X189454922Y-78309100D01*
X196857322Y-99043478D02*
X196857322Y-100094874D01*
X173677204Y-100514400D02*
X177095378Y-100514400D01*
X215415100Y-70222398D02*
X215856304Y-70663602D01*
X165794600Y-78295911D02*
X163910000Y-80180511D01*
X165716100Y-48421811D02*
X163831500Y-50306411D01*
X189454922Y-78309100D02*
X187570322Y-80193700D01*
X177095378Y-100514400D02*
X178979978Y-98629800D01*
X193314300Y-78750304D02*
X192873096Y-78309100D01*
X193235800Y-49927600D02*
X193235800Y-48876204D01*
X150670774Y-78295911D02*
X147252600Y-78295911D01*
X173157500Y-70199096D02*
X173598704Y-70640300D01*
X177016878Y-70640300D02*
X178901478Y-68755700D01*
X193235800Y-48876204D02*
X192794596Y-48435000D01*
X150592274Y-48421811D02*
X147174100Y-48421811D01*
X154576500Y-69156189D02*
X154576500Y-70207585D01*
X215934804Y-100537702D02*
X219352978Y-100537702D01*
X211336596Y-48435000D02*
X207918422Y-48435000D01*
X158514378Y-100522889D02*
X160398978Y-98638289D01*
X211856300Y-79801700D02*
X211856300Y-78750304D01*
X215856304Y-70663602D02*
X219274478Y-70663602D01*
X169653978Y-79788511D02*
X169653978Y-78737115D01*
%TO.N,SCL*%
X196278822Y-70357170D02*
X197033630Y-71111978D01*
X170075478Y-48726619D02*
X169320670Y-47971811D01*
X206033822Y-47910622D02*
X206033822Y-47784600D01*
X145363878Y-47971811D02*
X145289500Y-47897433D01*
X145368000Y-77771533D02*
X145368000Y-77645511D01*
X154076500Y-69156189D02*
X154076500Y-70343981D01*
X221237578Y-101062080D02*
X221237578Y-101188102D01*
X163984378Y-77845911D02*
X163910000Y-77771533D01*
X211522992Y-47985000D02*
X206108200Y-47985000D01*
X160246100Y-71098789D02*
X160320478Y-71173167D01*
X221163200Y-100987702D02*
X221237578Y-101062080D01*
X173412308Y-71090300D02*
X178827100Y-71090300D01*
X214993600Y-100232894D02*
X215748408Y-100987702D01*
X154831308Y-71098789D02*
X160246100Y-71098789D01*
X196357322Y-99043478D02*
X196357322Y-100231270D01*
X154155000Y-100218081D02*
X154909808Y-100972889D01*
X169399170Y-77845911D02*
X163984378Y-77845911D01*
X160320478Y-71173167D02*
X160320478Y-71299189D01*
X178979978Y-101038778D02*
X178979978Y-101164800D01*
X173490808Y-100964400D02*
X178905600Y-100964400D01*
X163910000Y-77771533D02*
X163910000Y-77645511D01*
X151611978Y-79788511D02*
X151611978Y-78600719D01*
X169320670Y-47971811D02*
X163905878Y-47971811D01*
X212277800Y-49927600D02*
X212277800Y-48739808D01*
X193735800Y-49927600D02*
X193735800Y-48739808D01*
X172736000Y-99021800D02*
X172736000Y-100209592D01*
X202601300Y-101060456D02*
X202601300Y-101186478D01*
X212277800Y-48739808D02*
X211522992Y-47985000D01*
X197033630Y-71111978D02*
X202448422Y-71111978D01*
X151533478Y-48726619D02*
X150778670Y-47971811D01*
X206186700Y-77859100D02*
X206112322Y-77784722D01*
X187644700Y-77859100D02*
X187570322Y-77784722D01*
X202522800Y-71186356D02*
X202522800Y-71312378D01*
X154076500Y-70343981D02*
X154831308Y-71098789D01*
X170075478Y-49914411D02*
X170075478Y-48726619D01*
X187491822Y-47910622D02*
X187491822Y-47784600D01*
X214915100Y-69171002D02*
X214915100Y-70358794D01*
X197112130Y-100986078D02*
X202526922Y-100986078D01*
X193735800Y-48739808D02*
X192980992Y-47985000D01*
X170153978Y-79788511D02*
X170153978Y-78600719D01*
X212356300Y-78613908D02*
X211601492Y-77859100D01*
X187566200Y-47985000D02*
X187491822Y-47910622D01*
X154155000Y-99030289D02*
X154155000Y-100218081D01*
X163905878Y-47971811D02*
X163831500Y-47897433D01*
X214993600Y-99045102D02*
X214993600Y-100232894D01*
X178905600Y-100964400D02*
X178979978Y-101038778D01*
X150778670Y-47971811D02*
X145363878Y-47971811D01*
X211601492Y-77859100D02*
X206186700Y-77859100D01*
X206112322Y-77784722D02*
X206112322Y-77658700D01*
X193814300Y-79801700D02*
X193814300Y-78613908D01*
X196357322Y-100231270D02*
X197112130Y-100986078D01*
X178827100Y-71090300D02*
X178901478Y-71164678D01*
X154909808Y-100972889D02*
X160324600Y-100972889D01*
X150857170Y-77845911D02*
X145442378Y-77845911D01*
X151533478Y-49914411D02*
X151533478Y-48726619D01*
X206108200Y-47985000D02*
X206033822Y-47910622D01*
X215748408Y-100987702D02*
X221163200Y-100987702D01*
X178901478Y-71164678D02*
X178901478Y-71290700D01*
X145289500Y-47897433D02*
X145289500Y-47771411D01*
X202448422Y-71111978D02*
X202522800Y-71186356D01*
X193814300Y-78613908D02*
X193059492Y-77859100D01*
X160324600Y-100972889D02*
X160398978Y-101047267D01*
X221159078Y-71187980D02*
X221159078Y-71314002D01*
X151611978Y-78600719D02*
X150857170Y-77845911D01*
X187570322Y-77784722D02*
X187570322Y-77658700D01*
X193059492Y-77859100D02*
X187644700Y-77859100D01*
X202526922Y-100986078D02*
X202601300Y-101060456D01*
X215669908Y-71113602D02*
X221084700Y-71113602D01*
X212356300Y-79801700D02*
X212356300Y-78613908D01*
X196278822Y-69169378D02*
X196278822Y-70357170D01*
X214915100Y-70358794D02*
X215669908Y-71113602D01*
X172657500Y-69147700D02*
X172657500Y-70335492D01*
X172657500Y-70335492D02*
X173412308Y-71090300D01*
X192980992Y-47985000D02*
X187566200Y-47985000D01*
X160398978Y-101047267D02*
X160398978Y-101173289D01*
X221084700Y-71113602D02*
X221159078Y-71187980D01*
X170153978Y-78600719D02*
X169399170Y-77845911D01*
X172736000Y-100209592D02*
X173490808Y-100964400D01*
X145442378Y-77845911D02*
X145368000Y-77771533D01*
X163831500Y-47897433D02*
X163831500Y-47771411D01*
%TD*%
M02*
