%TF.GenerationSoftware,KiCad,Pcbnew,8.0.3*%
%TF.CreationDate,2024-06-16T14:02:55-05:00*%
%TF.ProjectId,EZ-VIK_panelized_panelized_panelized_panelized,455a2d56-494b-45f7-9061-6e656c697a65,rev?*%
%TF.SameCoordinates,Original*%
%TF.FileFunction,Legend,Bot*%
%TF.FilePolarity,Positive*%
%FSLAX46Y46*%
G04 Gerber Fmt 4.6, Leading zero omitted, Abs format (unit mm)*
G04 Created by KiCad (PCBNEW 8.0.3) date 2024-06-16 14:02:55*
%MOMM*%
%LPD*%
G01*
G04 APERTURE LIST*
%ADD10R,1.680000X1.680000*%
%ADD11C,3.000000*%
G04 APERTURE END LIST*
%LPC*%
D10*
%TO.C,J2*%
X209928600Y-102722102D03*
X212478600Y-102722102D03*
X215013600Y-102722102D03*
X217548600Y-102722102D03*
%TD*%
%TO.C,J3*%
X145163478Y-55391411D03*
X145163478Y-52841411D03*
X145163478Y-50306411D03*
X145163478Y-47771411D03*
%TD*%
%TO.C,J1*%
X187487322Y-93576478D03*
X187487322Y-96126478D03*
X187487322Y-98661478D03*
X187487322Y-101196478D03*
%TD*%
%TO.C,J2*%
X175218978Y-76111511D03*
X172668978Y-76111511D03*
X170133978Y-76111511D03*
X167598978Y-76111511D03*
%TD*%
%TO.C,J2*%
X198800800Y-46250600D03*
X196250800Y-46250600D03*
X193715800Y-46250600D03*
X191180800Y-46250600D03*
%TD*%
%TO.C,J3*%
X179027500Y-63670700D03*
X179027500Y-66220700D03*
X179027500Y-68755700D03*
X179027500Y-71290700D03*
%TD*%
%TO.C,J2*%
X149090000Y-102707289D03*
X151640000Y-102707289D03*
X154175000Y-102707289D03*
X156710000Y-102707289D03*
%TD*%
%TO.C,J1*%
X179023978Y-85255511D03*
X179023978Y-82705511D03*
X179023978Y-80170511D03*
X179023978Y-77635511D03*
%TD*%
%TO.C,J2*%
X217342800Y-46250600D03*
X214792800Y-46250600D03*
X212257800Y-46250600D03*
X209722800Y-46250600D03*
%TD*%
%TO.C,J1*%
X163787500Y-63680700D03*
X163787500Y-66230700D03*
X163787500Y-68765700D03*
X163787500Y-71300700D03*
%TD*%
%TO.C,J1*%
X202605800Y-55394600D03*
X202605800Y-52844600D03*
X202605800Y-50309600D03*
X202605800Y-47774600D03*
%TD*%
%TO.C,J3*%
X179106000Y-93544800D03*
X179106000Y-96094800D03*
X179106000Y-98629800D03*
X179106000Y-101164800D03*
%TD*%
%TO.C,J3*%
X163705478Y-55391411D03*
X163705478Y-52841411D03*
X163705478Y-50306411D03*
X163705478Y-47771411D03*
%TD*%
%TO.C,J1*%
X202684300Y-85268700D03*
X202684300Y-82718700D03*
X202684300Y-80183700D03*
X202684300Y-77648700D03*
%TD*%
%TO.C,J2*%
X156598478Y-46237411D03*
X154048478Y-46237411D03*
X151513478Y-46237411D03*
X148978478Y-46237411D03*
%TD*%
%TO.C,J3*%
X205907800Y-55404600D03*
X205907800Y-52854600D03*
X205907800Y-50319600D03*
X205907800Y-47784600D03*
%TD*%
%TO.C,J2*%
X167671000Y-102698800D03*
X170221000Y-102698800D03*
X172756000Y-102698800D03*
X175291000Y-102698800D03*
%TD*%
%TO.C,J3*%
X202727322Y-93566478D03*
X202727322Y-96116478D03*
X202727322Y-98651478D03*
X202727322Y-101186478D03*
%TD*%
%TO.C,J3*%
X160525000Y-93553289D03*
X160525000Y-96103289D03*
X160525000Y-98638289D03*
X160525000Y-101173289D03*
%TD*%
%TO.C,J3*%
X187444300Y-85278700D03*
X187444300Y-82728700D03*
X187444300Y-80193700D03*
X187444300Y-77658700D03*
%TD*%
%TO.C,J2*%
X209850100Y-72848002D03*
X212400100Y-72848002D03*
X214935100Y-72848002D03*
X217470100Y-72848002D03*
%TD*%
%TO.C,J3*%
X163783978Y-85265511D03*
X163783978Y-82715511D03*
X163783978Y-80180511D03*
X163783978Y-77645511D03*
%TD*%
%TO.C,J3*%
X221363600Y-93568102D03*
X221363600Y-96118102D03*
X221363600Y-98653102D03*
X221363600Y-101188102D03*
%TD*%
%TO.C,J2*%
X156676978Y-76111511D03*
X154126978Y-76111511D03*
X151591978Y-76111511D03*
X149056978Y-76111511D03*
%TD*%
%TO.C,J3*%
X145241978Y-85265511D03*
X145241978Y-82715511D03*
X145241978Y-80180511D03*
X145241978Y-77645511D03*
%TD*%
%TO.C,J1*%
X145206500Y-63689189D03*
X145206500Y-66239189D03*
X145206500Y-68774189D03*
X145206500Y-71309189D03*
%TD*%
%TO.C,J3*%
X221285100Y-63694002D03*
X221285100Y-66244002D03*
X221285100Y-68779002D03*
X221285100Y-71314002D03*
%TD*%
%TO.C,J1*%
X160403478Y-55381411D03*
X160403478Y-52831411D03*
X160403478Y-50296411D03*
X160403478Y-47761411D03*
%TD*%
%TO.C,J2*%
X191292322Y-102720478D03*
X193842322Y-102720478D03*
X196377322Y-102720478D03*
X198912322Y-102720478D03*
%TD*%
%TO.C,J3*%
X160446500Y-63679189D03*
X160446500Y-66229189D03*
X160446500Y-68764189D03*
X160446500Y-71299189D03*
%TD*%
%TO.C,J2*%
X198879300Y-76124700D03*
X196329300Y-76124700D03*
X193794300Y-76124700D03*
X191259300Y-76124700D03*
%TD*%
%TO.C,J1*%
X206123600Y-93578102D03*
X206123600Y-96128102D03*
X206123600Y-98663102D03*
X206123600Y-101198102D03*
%TD*%
%TO.C,J1*%
X206045100Y-63704002D03*
X206045100Y-66254002D03*
X206045100Y-68789002D03*
X206045100Y-71324002D03*
%TD*%
%TO.C,J3*%
X187365800Y-55404600D03*
X187365800Y-52854600D03*
X187365800Y-50319600D03*
X187365800Y-47784600D03*
%TD*%
%TO.C,J3*%
X202648822Y-63692378D03*
X202648822Y-66242378D03*
X202648822Y-68777378D03*
X202648822Y-71312378D03*
%TD*%
%TO.C,J2*%
X167592500Y-72824700D03*
X170142500Y-72824700D03*
X172677500Y-72824700D03*
X175212500Y-72824700D03*
%TD*%
%TO.C,J1*%
X145285000Y-93563289D03*
X145285000Y-96113289D03*
X145285000Y-98648289D03*
X145285000Y-101183289D03*
%TD*%
%TO.C,J2*%
X175140478Y-46237411D03*
X172590478Y-46237411D03*
X170055478Y-46237411D03*
X167520478Y-46237411D03*
%TD*%
%TO.C,J2*%
X217421300Y-76124700D03*
X214871300Y-76124700D03*
X212336300Y-76124700D03*
X209801300Y-76124700D03*
%TD*%
%TO.C,J1*%
X178945478Y-55381411D03*
X178945478Y-52831411D03*
X178945478Y-50296411D03*
X178945478Y-47761411D03*
%TD*%
%TO.C,J3*%
X205986300Y-85278700D03*
X205986300Y-82728700D03*
X205986300Y-80193700D03*
X205986300Y-77658700D03*
%TD*%
%TO.C,J1*%
X163866000Y-93554800D03*
X163866000Y-96104800D03*
X163866000Y-98639800D03*
X163866000Y-101174800D03*
%TD*%
%TO.C,J1*%
X160481978Y-85255511D03*
X160481978Y-82705511D03*
X160481978Y-80170511D03*
X160481978Y-77635511D03*
%TD*%
%TO.C,J2*%
X149011500Y-72833189D03*
X151561500Y-72833189D03*
X154096500Y-72833189D03*
X156631500Y-72833189D03*
%TD*%
%TO.C,J2*%
X191213822Y-72846378D03*
X193763822Y-72846378D03*
X196298822Y-72846378D03*
X198833822Y-72846378D03*
%TD*%
%TO.C,J1*%
X187408822Y-63702378D03*
X187408822Y-66252378D03*
X187408822Y-68787378D03*
X187408822Y-71322378D03*
%TD*%
%TO.C,J1*%
X221147800Y-55394600D03*
X221147800Y-52844600D03*
X221147800Y-50309600D03*
X221147800Y-47774600D03*
%TD*%
%TO.C,J1*%
X221226300Y-85268700D03*
X221226300Y-82718700D03*
X221226300Y-80183700D03*
X221226300Y-77648700D03*
%TD*%
D11*
%TO.C,*%
X220472000Y-42164000D03*
%TD*%
%TO.C,*%
X146304000Y-42164000D03*
%TD*%
%TO.C,*%
X146812000Y-106680000D03*
%TD*%
%TO.C,*%
X220980000Y-106680000D03*
%TD*%
%LPD*%
M02*
