M48
; DRILL file {KiCad 8.0.3} date 2024-06-16T14:02:55-0500
; FORMAT={-:-/ absolute / inch / decimal}
; #@! TF.CreationDate,2024-06-16T14:02:55-05:00
; #@! TF.GenerationSoftware,Kicad,Pcbnew,8.0.3
; #@! TF.FileFunction,Plated,1,2,PTH
FMAT,2
INCH
; #@! TA.AperFunction,Plated,PTH,ComponentDrill
T1C0.0394
%
G90
G05
T1
X5.7151Y-1.8808
X5.7151Y-1.9806
X5.7151Y-2.0804
X5.7151Y-2.1808
X5.7168Y-2.5074
X5.7168Y-2.6078
X5.7168Y-2.7076
X5.7168Y-2.8074
X5.7182Y-3.0569
X5.7182Y-3.1567
X5.7182Y-3.2565
X5.7182Y-3.3569
X5.7199Y-3.6836
X5.7199Y-3.784
X5.7199Y-3.8838
X5.7199Y-3.9836
X5.8653Y-1.8204
X5.8666Y-2.8674
X5.8684Y-2.9965
X5.8697Y-4.0436
X5.9651Y-1.8204
X5.967Y-2.8674
X5.9682Y-2.9965
X5.9701Y-4.0436
X6.0649Y-1.8204
X6.0668Y-2.8674
X6.068Y-2.9965
X6.0699Y-4.0436
X6.1653Y-1.8204
X6.1666Y-2.8674
X6.1684Y-2.9965
X6.1697Y-4.0436
X6.3151Y-1.8804
X6.3151Y-1.9802
X6.3151Y-2.08
X6.3151Y-2.1804
X6.3168Y-2.5071
X6.3168Y-2.6074
X6.3168Y-2.7073
X6.3168Y-2.8071
X6.3182Y-3.0565
X6.3182Y-3.1563
X6.3182Y-3.2561
X6.3182Y-3.3565
X6.3199Y-3.6832
X6.3199Y-3.7836
X6.3199Y-3.8834
X6.3199Y-3.9832
X6.4451Y-1.8808
X6.4451Y-1.9806
X6.4451Y-2.0804
X6.4451Y-2.1808
X6.4482Y-3.0569
X6.4482Y-3.1567
X6.4482Y-3.2565
X6.4482Y-3.3569
X6.4483Y-2.5071
X6.4483Y-2.6075
X6.4483Y-2.7073
X6.4483Y-2.8071
X6.4514Y-3.6833
X6.4514Y-3.7837
X6.4514Y-3.8835
X6.4514Y-3.9833
X6.5953Y-1.8204
X6.5981Y-2.8671
X6.5984Y-2.9965
X6.6012Y-4.0433
X6.6951Y-1.8204
X6.6982Y-2.9965
X6.6985Y-2.8671
X6.7016Y-4.0433
X6.7949Y-1.8204
X6.798Y-2.9965
X6.7983Y-2.8671
X6.8014Y-4.0433
X6.8953Y-1.8204
X6.8981Y-2.8671
X6.8984Y-2.9965
X6.9012Y-4.0433
X7.0451Y-1.8804
X7.0451Y-1.9802
X7.0451Y-2.08
X7.0451Y-2.1804
X7.0482Y-3.0565
X7.0482Y-3.1563
X7.0482Y-3.2561
X7.0482Y-3.3565
X7.0483Y-2.5067
X7.0483Y-2.6071
X7.0483Y-2.7069
X7.0483Y-2.8067
X7.0514Y-3.6829
X7.0514Y-3.7833
X7.0514Y-3.8831
X7.0514Y-3.9829
X7.3766Y-1.8813
X7.3766Y-1.9811
X7.3766Y-2.0809
X7.3766Y-2.1813
X7.3783Y-2.508
X7.3783Y-2.6084
X7.3783Y-2.7082
X7.3783Y-2.808
X7.3797Y-3.0574
X7.3797Y-3.1572
X7.3797Y-3.257
X7.3797Y-3.3574
X7.3814Y-3.6841
X7.3814Y-3.7845
X7.3814Y-3.8843
X7.3814Y-3.9841
X7.5268Y-1.8209
X7.5281Y-2.868
X7.5299Y-2.997
X7.5312Y-4.0441
X7.6266Y-1.8209
X7.6285Y-2.868
X7.6297Y-2.997
X7.6316Y-4.0441
X7.7264Y-1.8209
X7.7283Y-2.868
X7.7295Y-2.997
X7.7314Y-4.0441
X7.8268Y-1.8209
X7.8281Y-2.868
X7.8299Y-2.997
X7.8312Y-4.0441
X7.9766Y-1.8809
X7.9766Y-1.9807
X7.9766Y-2.0805
X7.9766Y-2.1809
X7.9783Y-2.5076
X7.9783Y-2.608
X7.9783Y-2.7078
X7.9783Y-2.8076
X7.9797Y-3.057
X7.9797Y-3.1568
X7.9797Y-3.2566
X7.9797Y-3.357
X7.9814Y-3.6837
X7.9814Y-3.7841
X7.9814Y-3.8839
X7.9814Y-3.9837
X8.1066Y-1.8813
X8.1066Y-1.9811
X8.1066Y-2.0809
X8.1066Y-2.1813
X8.1097Y-3.0574
X8.1097Y-3.1572
X8.1097Y-3.257
X8.1097Y-3.3574
X8.112Y-2.508
X8.112Y-2.6084
X8.112Y-2.7082
X8.112Y-2.808
X8.1151Y-3.6842
X8.1151Y-3.7846
X8.1151Y-3.8844
X8.1151Y-3.9842
X8.2568Y-1.8209
X8.2599Y-2.997
X8.2618Y-2.868
X8.2649Y-4.0442
X8.3566Y-1.8209
X8.3597Y-2.997
X8.3622Y-2.868
X8.3653Y-4.0442
X8.4564Y-1.8209
X8.4595Y-2.997
X8.462Y-2.868
X8.4651Y-4.0442
X8.5568Y-1.8209
X8.5599Y-2.997
X8.5618Y-2.868
X8.5649Y-4.0442
X8.7066Y-1.8809
X8.7066Y-1.9807
X8.7066Y-2.0805
X8.7066Y-2.1809
X8.7097Y-3.057
X8.7097Y-3.1568
X8.7097Y-3.2566
X8.7097Y-3.357
X8.712Y-2.5076
X8.712Y-2.608
X8.712Y-2.7078
X8.712Y-2.8076
X8.7151Y-3.6838
X8.7151Y-3.7842
X8.7151Y-3.884
X8.7151Y-3.9838
M30
